<svg xmlns="http://www.w3.org/2000/svg" viewBox="0 0 1024 960">
    <path
        d="M541.531 1c-4.367 2.883-9.912 1.629-15.012 2.073-17.34 1.51-34.599 3.548-51.745 6.4-26.987 4.487-53.687 10.343-80.03 17.792-37.278 10.541-73.735 23.314-109.024 39.371-31.702 14.425-62.271 30.886-90.732 51.006-13.947 9.86-27.21 20.643-40.224 31.762-10.257 8.762-20.427 17.62-29.32 27.683-10.731 12.142-20.913 24.784-30.934 37.552-16.782 21.382-32.14 43.584-43.926 68.182-10.663 22.252-18.29 45.51-24.238 69.39-3.886 15.601-7.022 31.345-8.812 47.317-1.051 9.382-1.587 18.828-2.149 28.258-.414 6.954-.797 13.992-.739 20.878.178 21.033.42 42.181 6.061 62.715 2.184 7.95 6.95 14.355 13.318 19.456 5.121 4.102 12.707 2.294 15.778-3.513 2.147-4.06 2.927-8.494 2.82-13.012-.463-19.802.983-39.532 3.216-59.144 3.244-28.503 8.865-56.566 17.112-84.13 8.278-27.668 19.142-54.217 32.828-79.569 11.713-21.697 25.521-41.993 41.918-60.564 14.247-16.136 29.733-31.022 45.192-45.896 13.692-13.174 29.957-23.163 46.387-32.671 16.266-9.414 32.65-18.665 49.622-26.724 20.985-9.965 41.97-20.055 64.463-26.375 4.95-1.39 10.019-2.456 15.155-2.465 2.972-.004 6.733-.264 7.675 3.834.985 4.28-1.751 6.421-5.294 7.822-12.492 4.94-25.042 9.74-37.47 14.837-20.46 8.39-40.44 17.83-60.045 28.06-24.254 12.657-46.851 27.674-67.386 45.878-10.232 9.07-20.052 18.595-29.206 28.615-13.524 14.803-25.846 30.7-36.79 47.613-22.909 35.408-41.332 72.802-50.851 114.13-3.755 16.303-6.202 32.828-7.948 49.501-3.084 29.46-4.372 58.969-3.805 88.557.39 20.398 1.806 40.733 3.718 61.066 2.005 21.323 5.666 42.317 10.467 63.11 4.811 20.838 13.896 40.09 23.323 59.198 11.063 22.424 25.31 42.446 43.126 59.985 11.875 11.689 23.099 24.085 35.47 35.213 16.014 14.406 33.286 27.316 51.292 39.22 18.038 11.923 36.614 22.902 56 32.462 26.187 12.913 53.652 21.699 82.625 26.007 11.737 1.745 23.655 2.962 35.04 6.738 3.271 1.086 5.897 2.795 7.34 6.48-5.649 3.23-11.692 3.943-17.762 4.23-24.426 1.158-47.782-4.765-70.91-11.45-35.83-10.356-70.288-24.303-103.37-41.529-18.06-9.404-34.26-21.562-49.472-35.042-7.075-6.27-14.428-12.295-20.961-19.097-16.454-17.129-31.861-35.186-46.582-53.847-10.066-12.76-19.307-26.19-30.482-38.065-2.417-2.567-5.215-4.66-8.285-6.353-6.407-3.531-11.934-1.35-13.721 5.837-1.916 7.7-1.097 15.449.635 23.16 4.166 18.555 12.612 35.236 22.449 51.262 11.141 18.153 24.387 34.641 38.967 50.228 19.94 21.317 41.867 40.2 66.122 56.28 37.112 24.603 78.005 40.345 121.35 49.897 19.403 4.276 38.982 7.569 58.817 9.147.638.051 1.253.384 2.144.915C250.41 961 125.82 961 1 961c0-112.02 0-224.042.358-336.353 2.25 7.071 3.712 14.577 6.124 21.764 5.382 16.042 15.865 27.409 32.305 32.506 13.18 4.086 21.668-2.402 21.928-15.992.286-14.965-.69-29.838-3.184-44.555-1.957-11.551-3.833-23.22-9.197-33.87-4.416-8.766-11.836-13.74-21.416-13.922C18.88 570.406 12 575.2 7.126 583.01 4.372 587.424 3.631 592.602 1 597c0-188.354 0-376.708.222-565.308 6.63 2.446 13.313 3.405 20.217 2.868.618-.048 1.253-.454 1.794-.82 6.52-4.409 13.998-5.796 21.568-6.971 4.577-.71 9.25-1.193 13.42-3.438 2.265-1.22 4.503-2.762 2.756-5.84-2.414-4.255-2.361-8.594-.525-12.906C61.295 2.607 60.24 1.883 59 1h482.531zM468.469 961c3.332-2.8 7.956-1.613 12.058-2.018 28.925-2.857 57.378-8.28 85.421-15.623 23.924-6.265 47.268-14.44 70.017-24.272 28.445-12.292 55.714-26.801 81.73-43.566 20.52-13.224 40.001-27.882 58.195-44.27 8.547-7.697 16.697-15.758 24.696-23.97 15.304-15.71 28.898-32.845 41.63-50.713 17.91-25.13 32.764-52.008 45.929-79.813 15.835-33.445 27.426-68.355 33.339-104.963 2.536-15.703 3.524-31.583 4.453-47.493.816-13.992.85-27.95.591-41.894-.363-19.549-1.802-39.057-3.7-58.548-3.15-32.355-8.169-64.375-16.284-95.832-5.86-22.715-14.538-44.378-25.89-65.036-15.355-27.942-34.698-52.698-57.531-74.791-23.746-22.977-50.21-42.41-78.778-58.932-26.337-15.232-53.26-29.295-82.48-38.37-20.295-6.305-41.075-10.377-62.046-13.644-6.205-.967-12.476-1.79-18.47-3.863-1.906-.658-4.027-1.162-4.415-3.492-.434-2.603 1.643-3.896 3.431-5.035 9.26-5.902 19.672-5.983 29.965-4.944 24.387 2.46 47.692 9.565 70.723 17.61 24.533 8.569 47.858 19.69 70.408 32.614 16.29 9.335 32.138 19.34 47.844 29.585 21.346 13.924 41.498 29.425 58.776 48.237 19.251 20.96 35.602 44.033 49.101 69.186 18.266 34.034 30.96 70.05 39.615 107.57 4.394 19.045 7.64 38.292 9.637 57.761 1.456 14.192 2.385 28.39 3.142 42.635.496 9.313.994 18.62.662 27.899-.68 19.04-1.653 38.056-3.683 57.044-3.267 30.562-8.775 60.635-17.21 90.165-10.542 36.9-25.345 71.977-45.353 104.798-14.833 24.333-32.101 46.738-51.489 67.663-20.064 21.656-42.338 40.667-65.54 58.79-20.087 15.688-41.57 29.192-63.164 42.6-4.903 3.045-9.855 6.273-13.533 10.888-2.37 2.973-5.532 6.359-3.31 10.26 2.337 4.1 7.077 4.887 11.49 4.298 5.898-.786 11.722-2.065 17.476-3.738 25.614-7.45 47.853-21.24 69.456-36.355 14.84-10.383 28.93-21.729 42.98-33.114 9.017-7.306 17.71-15.047 26.183-22.982 11.658-10.919 23.26-21.926 34.375-33.39 26.629-27.464 51.228-56.512 69.843-90.252 14.258-25.84 25.705-52.75 34.182-81.041 7.683-25.646 12.985-51.758 16.457-78.219 1.612-12.287 3.004-24.668 3.36-37.118.17-5.935 1.026-11.85 1.906-18.044.336 151.666.336 303.6.336 455.732H468.469m428.687-79.632c3.115-1.878.17-5.677 2.353-7.923 2.186 2.475.34 7.608 4.723 7.977 5.294.445 2.425-5.802 5.601-7.836.172 1.211.35 2.292.474 3.38.213 1.867-.534 4.54 2.558 4.403 2.644-.117 2.765-2.446 2.773-4.52.017-4.333.003-8.665.022-12.998.01-2.24.166-4.432-3.126-4.5-2.71-.055-4.834.13-5.575 3.476-.532 2.408-.716 5.09-2.787 7.48-.83-2.927-1.784-5.414-2.202-7.987-.562-3.456-2.99-2.935-5.29-2.952-2.662-.02-3.365 1.518-3.331 3.886.066 4.664-.01 9.331.015 13.997.011 2.11.29 4.1 3.792 4.117m-14.316-.27c2.828.257 2.771-1.764 2.802-3.627.052-3.166.067-6.332.027-9.497-.03-2.412.383-4.343 3.428-4.321 1.265.009 2.36-.478 2.376-1.976.015-1.428-.957-2.142-2.245-2.165a418.317 418.317 0 00-12.488-.024c-1.064.013-1.909.599-2.102 1.765-.154.93.3 1.957 1.077 1.999 6.191.333 4.167 4.981 4.676 8.437.457 3.096-1.718 6.72 2.449 9.41z" />
    <path
        d="M1025 423.531c-2.913-4.052-1.584-9.321-1.994-14.111-2.655-30.99-8.866-61.273-17.536-91.032-6.033-20.71-13.601-40.94-22.044-60.82-5.527-13.012-11.563-25.787-18.18-38.267-11.53-21.744-24.9-42.315-39.912-61.835-11.055-14.374-22.848-28.12-35.879-40.687-24.833-23.95-52.186-44.594-82.416-61.38-35.697-19.822-73.67-33.561-113.383-42.557-17.116-3.877-34.416-6.939-51.933-8.547-9.05-.83-18.09-1.779-27.43-2.985C750.929 1 887.857 1 1025 1v422.531zM240.358 365.269c22.647-11.969 44.13-25.317 67.02-36.068 16.562-7.778 33.576-14.464 50.48-21.423 12.663-5.213 23.516-12.06 30.751-24.684 9.234-16.11 20.048-31.318 30.274-46.853 3.198-4.859 8.1-7.297 13.655-8.397 49.21-9.752 98.42-19.497 147.647-29.164 9.418-1.85 18.72-4.3 28.34-5.148 9.402-.83 15.474 3.401 17.778 12.576 4.235 16.864 8.698 33.672 12.842 50.558.647 2.636 1.972 3.898 4.197 5 13.314 6.595 27.534 10.743 41.688 14.85 26.49 7.685 52.443 16.632 77.325 28.635 13.025 6.283 26.26 12.136 38.744 19.475 5.271 3.1 9.875 6.913 10.216 13.7.447 8.878-5.268 14.892-14.074 16.103-8.315 1.144-16.489.488-24.778.072-11.135-.56-22.35-.68-33.475-.029-17.626 1.033-35.265.291-52.867 1.026-16.405.686-32.81 1.319-49.218 1.958-16.735.652-33.492 1.435-50.156 3.037-21.76 2.092-43.581 3.409-65.338 5.622-17.953 1.826-35.927 3.607-53.885 5.42-20.417 2.061-40.736 5.086-61.105 7.635-16.927 2.118-33.885 3.999-50.791 6.27-14.925 2.006-29.754 4.773-44.703 6.542-20.42 2.417-40.537 6.64-60.87 9.56-11.656 1.674-23.279 3.32-35.047 3.81-2.843.118-5.603-.25-8.384-.92-6.044-1.455-7.76-5.218-4.557-10.535 4.077-6.769 10.512-11.033 16.83-15.285 6.882-4.631 14.079-8.796 21.46-13.343zM431.04 749.33c-7.987-.1-10.031-1.872-10.29-9.844-.415-12.79-.571-25.616 2.329-38.197.93-4.033.198-5.397-4.07-4.124-13.535 4.036-26.595 9.356-39.656 14.652-5.074 2.058-7.018 6.569-8.046 11.79-3.746 19.024-7.59 38.049-15.234 56.008-4.92 11.559-15.635 16.62-25.728 12.353-3.57-1.51-5.847-3.985-6.776-7.978-2.498-10.741-1.226-21.31.826-31.903 1.768-9.127 4.321-18.052 6.876-26.975 1.115-3.895.364-5.852-4.294-5.921-3.917-.058-7.88-.963-11.711-1.935-6.618-1.68-10.198-6.687-12.279-12.728-1.775-5.154 1.18-10.626 6.79-13.536 7.086-3.675 14.895-4.312 22.614-5.309 3.122-.403 6.262-.692 9.361-1.22 2.998-.51 4.828-2.34 6.13-5.187 7.605-16.619 14.72-33.477 23.308-49.625 6.57-12.353 14.29-23.956 24.702-33.474 2.438-2.227 5.418-6.057 8.86-3.685 2.596 1.79 2.224 5.94 1.887 9.56-2.21 23.727-11.027 45.686-17.795 68.195-.517 1.717-1.563 3.317-1.288 5.546 3.507.902 6.743-.65 9.988-1.377 9.54-2.137 18.986-4.71 28.551-6.716 4.568-.958 7.205-3.26 8.845-7.571 4.014-10.552 8.245-21.025 12.567-31.456 4.515-10.894 9.494-21.562 16.24-31.32 1.934-2.797 4.489-4.954 7.02-7.044 3.802-3.137 7.425-1.936 9.276 2.619 3.188 7.843.52 15.415-1.32 22.916-2.645 10.79-5.78 21.456-7.93 32.37-.36 1.828-.72 3.554.106 5.408 2.069.876 3.84-.131 5.632-.901 2.764-1.187 5.55-2.224 8.644-2.056 1.82.1 3.89-.222 4.744 1.892.786 1.946-.436 3.548-1.585 4.972-3.193 3.956-7.324 6.887-11.784 9.056-7.006 3.406-10.918 8.98-12.901 16.19-2.775 10.087-3.787 20.488-5.287 30.798-1.152 7.91-2.766 15.689-6.236 22.948-4.127 8.636-10.893 13.14-21.085 12.809zM621.093 534.402c-5.366.658-10.306 1.91-15.214 1.797-11.494-.264-22.93.803-34.356 1.392-10.474.54-20.925.651-31.39.752-5.931.057-6.394-.637-6.495-6.7-.13-7.756 4.155-13.61 8.64-19.08 9.404-11.47 21.22-20.436 32.498-29.938 8.3-6.993 16.587-14.003 25.109-21.198-2.61-2.796-5.313-2.088-7.84-1.742-10.183 1.394-20.306 3.22-30.676 2.712-8.984-.441-16.32-5.237-17.973-12.158-1.516-6.352 1.641-11.687 8.14-12.676 10.135-1.542 20.344-2.583 30.515-3.894a4393.697 4393.697 0 0032.971-4.366c6.615-.903 13.186-1.164 19.774.294 10.343 2.29 13.035 8.746 9.374 19.424-2.795 8.15-8.997 14.463-15.778 20.09-7.938 6.587-14.901 14.235-21.564 22.129-3.985 4.72-8.996 8.32-13.718 12.225-4.63 3.83-4.416 5.447 1.247 7.754 6.415 2.614 13.304 2.729 20.03 3.332 9.301.833 18.575-.212 27.741-2.01 5.13-1.006 6.142-2.53 5.32-7.462-2.782-16.668 2.474-30.922 14.03-42.686 18.65-18.986 41.58-29.778 67.8-33.826 8.02-1.238 15.954-2.76 24.145-.985 2.998.65 4.424 1.62 5.202 4.808 2.052 8.407-1.518 15.633-3.98 23.14-1.757 5.354-3.66 10.667-3.282 16.46.23 3.522 1.615 5.785 5.325 6.732 6.863 1.75 13.827 3.29 20.344 6.5-.865 7.94-5.913 12.007-12.65 13.84-13.185 3.589-26.405 5.419-38.845-2.782-3.06-2.017-5.473-1.42-8.218 1.353-10.793 10.902-24.339 16.307-39.261 18.781-6.773 1.123-13.499 1.563-20.27.115-1.577-.337-2.925.053-3.893 1.522-5.828 8.835-14.955 12.22-24.57 14.73-2.562.668-5.193 1.07-8.232 1.62m98.367-81.066c-17.583 4.741-30.682 14.459-36.854 32.6 21.803.062 41.81-16.124 41.367-32.945-1.324-1.05-2.506.119-4.513.345zM305.907 532.852c6.815-3.613 12.881-7.75 18.371-12.576 7.942-6.981 13.447-15.697 15.15-26.229 1.272-7.866-2.39-14.405-8.09-19.434-8.866-7.818-20.008-9.926-31.322-11.207-2.475-.28-4.274.775-4.583 3.456-2.406 20.875-11.003 39.908-17.63 59.53-1.113 3.292-2.473 6.627-2.806 10.032-.98 10.015-7.56 17.563-11.12 26.428-7.115 17.727-12.677 36.009-19.56 53.811-4.535 11.732-8.22 23.966-17.878 32.935-.853.793-1.587 1.807-2.579 2.343-10.615 5.744-13.67 3.721-15.11-6.81-2.532-18.537 2.66-36.154 7.612-53.65 8.753-30.928 20.329-60.784 35.397-89.23 5.134-9.692 10.97-18.962 16.926-28.161.89-1.375 2.345-2.865 1.426-4.476-1.152-2.019-3.163-.976-4.95-.625-8.463 1.666-13.272-.624-15.184-7.12-1.202-4.085 2.896-11.99 7.88-15.798 12.923-9.876 27.671-14.504 43.653-16.6 10.954-1.436 21.584-.786 31.96 2.317 21.085 6.306 35.37 19.838 39.455 41.856 2.712 14.616-2.43 27.889-11.271 39.63-15.8 20.982-37.017 33.426-62.464 38.802-5.465 1.155-11.162 1.362-16.843 1.368-4.374.005-6.917-1.508-8.225-6.215 10.465-4.7 20.982-9.422 31.785-14.377z" />
    <path
        d="M518.007 571.351c-26.481.15-52.145 2.589-77.15 10.203a68.491 68.491 0 01-13.63 2.651c-10.615.97-13.904-5.6-10.563-16.11 2.26-7.114 7.169-12.957 12.36-18.486 10.442-11.121 22.345-20.756 32.743-31.83 9.439-10.052 19.298-19.674 28.755-29.693.655-.694 1.13-1.56 2.276-3.173-6.476.607-12.148.93-17.756 1.713-9.113 1.272-18.189 1.318-27.193-.498-3.573-.721-7.014-2.24-8.984-5.678-3.51-6.127-1.04-12.064 5.756-13.813 11.28-2.905 22.885-3.983 34.403-4.755 16.05-1.075 32.097-2.729 48.24-2.262 8.924.258 11.054 3.07 9.599 12.224-1.525 9.597-7.892 16.267-13.277 23.546-9.962 13.466-22.654 24.32-34.677 35.808-4.575 4.372-8.464 9.274-12.316 15.466 4.1 0 7.525.085 10.945-.014 25.444-.732 50.74 1.106 76.016 3.869 8.269.904 16.554-.353 24.615-2.622 7.044-1.982 14.11-3.623 21.55-3.282 4.114.189 4.68 1.83 3.578 5.398-1.046 3.386-3.762 5.093-6.28 6.809-12.092 8.242-25.767 11.922-40.147 13.572-16.101 1.848-32.247.513-48.863.957zM635.974 706.787c-1.256 5.073-2.324 9.828-6.133 13.234-3.983 3.56-6.396 2.82-8.328-2.135-6.028-15.458-3.932-31.009-.257-46.435 3.189-13.385 7.01-26.62 10.702-39.88.687-2.467.654-4.891.91-7.945-4.98-.386-9.907-.457-14.758-1.244-8.29-1.346-12.541-6.093-12.51-13.929.017-4.027 2.041-6.253 5.46-7.38 2.494-.824 5.072-1.39 7.797-1.453 7.63-.177 15.25-.687 22.878-.946 2.814-.096 4.6-1.45 6.016-3.735 6.302-10.159 12.59-20.328 19.027-30.401 2.881-4.508 6.181-8.693 11.507-10.656 6.048-2.228 10.525.73 11.073 7.15.716 8.382-3.247 15.438-6.099 22.83-.62 1.61-2.816 3.054-1.372 4.926 1.39 1.802 3.35.414 5.078.049 15.215-3.22 30.413-6.518 45.663-9.561 4.85-.968 9.767-1.894 14.79-1.586 1.383.084 2.787.187 3.382 1.613.645 1.545-.612 2.509-1.56 3.37-6.026 5.475-13.614 8.287-20.88 11.37-17.396 7.376-34.955 14.424-53.226 19.421-7.307 1.998-9.262 8.19-11.354 14.071-9.337 26.252-18.456 52.58-27.806 79.252zM491.85 681.481c2.197-12.09 7.287-22.85 10.19-34.27.951-3.743.727-6.1-3.157-8.04-4.992-2.49-5.214-4.66-1-8.115 6.648-5.453 14.434-5.893 22.047-2.854 7.568 3.02 8.659 10.372 9.356 17.4.794 8.015-1.256 15.82-2.42 23.676-.266 1.804-.875 3.524.061 5.56 4.668-.988 8.481-3.648 12.237-6.281 16.473-11.551 28.336-27.29 39.443-43.705 3.268-4.83 6.89-9.34 11.73-12.766 3.454-2.443 5.901-1.451 7.678 1.973 2.465 4.75 2.927 9.976 2.188 15.076-1.945 13.409-4.787 26.722-5.578 40.253-.56 9.578-1.262 19.273.599 28.825.525 2.694-.513 3.71-2.87 4.044-5.931.842-10.763-1.117-14.526-5.758-4.432-5.466-7.498-11.725-10.556-18.001-.987-2.026-1.497-4.456-4.081-5.802-6.217 6.573-12.342 13.269-18.712 19.722-6.343 6.426-13.57 11.594-22.128 14.847-8.356 3.176-16.275 2.53-23.798-2.143-4.813-2.99-6.343-7.962-6.817-13.218-.298-3.3-.008-6.652.115-10.423zM421.376 505.135c-4.435 14.961-11.523 28.323-18.35 41.806-4.269 8.434-8.688 16.81-11.37 25.943-.094.319-.101.73-.31.938-2.417 2.407 1.662 8.225-4.953 8.641-7.197.454-12.647-1.571-16.194-8.117-5.067-9.353-4.308-19.363-2.778-29.17 2.855-18.314 13.827-32.804 23.817-47.665 6.38-9.49 13.985-18.154 18.67-28.783 1.574-3.573 9.753-2.936 11.868.705 2.94 5.063 3.523 10.88 3.27 16.354-.294 6.359-1.13 12.88-3.67 19.348zM463.113 403.834c-8.83 15.283-18.548 29.458-29.982 42.436-3.447 3.914-7.973 5.35-12.774 5.988-7.71 1.025-11.397-2.4-11.629-10.896-.24-8.796 2.6-16.86 8.312-23.383 10.298-11.76 22.198-21.483 37.778-25.567 3.343-.876 7.465-2.309 9.745.772 2.289 3.091.62 7.017-1.45 10.65z" />
</svg>