<svg version="1.1" id="Layer_1" xmlns="http://www.w3.org/2000/svg" xmlns:xlink="http://www.w3.org/1999/xlink" x="0px" y="0px"
	 width="100%" viewBox="0 0 1024 960" enable-background="new 0 0 1024 960" xml:space="preserve">
<path fill="#000000" opacity="1.000000" stroke="none" 
	d="
M541.531372,1.000000 
	C537.163879,3.882562 531.618530,2.628535 526.519104,3.072702 
	C509.179047,4.583064 491.920441,6.621163 474.773987,9.472532 
	C447.787384,13.960272 421.087494,19.815742 394.744080,27.264986 
	C357.466003,37.806267 321.009155,50.579388 285.720184,66.636436 
	C254.018341,81.061295 223.449020,97.522011 194.988205,117.641670 
	C181.040634,127.501549 167.777252,138.285080 154.763580,149.403503 
	C144.507248,158.166153 134.337189,167.023102 125.443092,177.087112 
	C114.712502,189.229187 104.531082,201.870514 94.509567,214.639221 
	C77.727692,236.021500 62.370903,258.223480 50.584011,282.820526 
	C39.920620,305.073059 32.294697,328.330505 26.346106,352.210571 
	C22.459747,367.811951 19.324371,383.555695 17.534336,399.527649 
	C16.482815,408.910034 15.946833,418.355988 15.385221,427.785645 
	C14.971031,434.740051 14.587783,441.778442 14.646132,448.664429 
	C14.824349,469.697021 15.066277,490.845306 20.706993,511.379120 
	C22.891092,519.329834 27.656885,525.733643 34.024601,530.834656 
	C39.146236,534.937500 46.732101,533.129333 49.802990,527.322205 
	C51.949993,523.262085 52.729691,518.828308 52.623806,514.309570 
	C52.159821,494.508484 53.605862,474.778168 55.838577,455.165863 
	C59.083382,426.663300 64.704140,398.599823 72.951164,371.035614 
	C81.229095,343.368073 92.093132,316.819275 105.778862,291.467499 
	C117.491920,269.769989 131.300064,249.474258 147.697311,230.902771 
	C161.943878,214.767151 177.430176,199.880737 192.889084,185.007141 
	C206.581177,171.833496 222.845901,161.843857 239.275909,152.335541 
	C255.541504,142.922363 271.926727,133.671005 288.897583,125.612122 
	C309.882874,115.646896 330.867279,105.557121 353.360657,99.237190 
	C358.310150,97.846542 363.379547,96.780594 368.516266,96.772446 
	C371.487640,96.767738 375.249420,96.507935 376.191437,100.605644 
	C377.175598,104.886871 374.439697,107.027229 370.896881,108.428345 
	C358.404694,113.368729 345.855103,118.168770 333.426880,123.264908 
	C312.966705,131.654541 292.986389,141.094604 273.381958,151.325287 
	C249.127975,163.982330 226.530594,178.998917 205.996323,197.202530 
	C195.763733,206.273727 185.943695,215.798447 176.789703,225.818024 
	C163.265671,240.620804 150.944016,256.518524 140.000946,273.431488 
	C117.091202,308.839355 98.668106,346.233063 89.148621,387.561707 
	C85.393593,403.864105 82.947365,420.389465 81.201462,437.062317 
	C78.116631,466.521698 76.829376,496.030731 77.395958,525.618652 
	C77.786560,546.016785 79.201881,566.352234 81.113762,586.685364 
	C83.118675,608.007874 86.780144,629.002441 91.580704,649.794739 
	C96.391998,670.633484 105.476784,689.885437 114.903603,708.992981 
	C125.966522,731.416870 140.213470,751.439270 158.030411,768.977539 
	C169.905197,780.666626 181.128983,793.062561 193.499664,804.191040 
	C209.514160,818.597412 226.785507,831.507446 244.792175,843.410095 
	C262.830322,855.333679 281.406250,866.312622 300.791901,875.872559 
	C326.978668,888.786499 354.444092,897.571899 383.417114,901.879578 
	C395.153503,903.624512 407.072021,904.841736 418.456635,908.618408 
	C421.728424,909.703735 424.353668,911.412964 425.796051,915.098328 
	C420.148224,918.327759 414.104980,919.041016 408.034912,919.328613 
	C383.609283,920.485901 360.253235,914.562866 337.125763,907.878296 
	C301.295532,897.522339 266.837341,883.575439 233.754807,866.349121 
	C215.694183,856.944824 199.494125,844.786621 184.283157,831.306763 
	C177.207596,825.036621 169.855423,819.011902 163.321793,812.210083 
	C146.868042,795.080994 131.460632,777.024475 116.740112,758.363403 
	C106.674278,745.603027 97.432579,732.172302 86.257713,720.298340 
	C83.841148,717.730591 81.042923,715.637268 77.973335,713.945435 
	C71.565582,710.413940 66.039139,712.594360 64.251549,719.781555 
	C62.336254,727.482117 63.154819,735.230774 64.886658,742.942566 
	C69.053375,761.496521 77.499298,778.177551 87.335823,794.204041 
	C98.477203,812.356567 111.723038,828.845154 126.302567,844.431702 
	C146.242371,865.748840 168.169922,884.632690 192.424713,900.711914 
	C229.536652,925.314636 270.429626,941.056946 313.775024,950.609253 
	C333.177887,954.885193 352.757202,958.177612 372.592255,959.756409 
	C373.230011,959.807129 373.845337,960.140137 374.735565,960.670776 
	C250.410049,961.000000 125.820114,961.000000 1.000000,961.000000 
	C1.000000,848.979187 1.000000,736.958252 1.357577,624.647217 
	C3.608071,631.718384 5.070169,639.224121 7.481635,646.411377 
	C12.864031,662.453430 23.347206,673.819946 39.787167,678.916809 
	C52.967148,683.003052 61.455307,676.515015 61.714954,662.925049 
	C62.000874,647.960083 61.024578,633.087463 58.530739,618.369629 
	C56.573547,606.818970 54.697956,595.149719 49.333851,584.500061 
	C44.918499,575.733887 37.497768,570.760254 27.918489,570.577820 
	C18.879465,570.405762 11.999941,575.199646 7.126430,583.009827 
	C4.372117,587.423889 3.630537,592.602417 1.000000,597.000000 
	C1.000000,408.645782 1.000000,220.291550 1.222332,31.692245 
	C7.851958,34.137512 14.535477,35.097462 21.438744,34.559647 
	C22.056698,34.511509 22.691698,34.106052 23.233162,33.739922 
	C29.752874,29.331377 37.230999,27.944262 44.800594,26.768902 
	C49.377598,26.058214 54.050793,25.575850 58.220673,23.331116 
	C60.485729,22.111786 62.723721,20.569433 60.976910,17.490475 
	C58.563072,13.235805 58.615860,8.897313 60.452415,4.585228 
	C61.295017,2.606873 60.239967,1.883242 59.000000,1.000000 
	C219.687561,1.000000 380.375122,1.000000 541.531372,1.000000 
z"/>
<path fill="#000000" opacity="1.000000" stroke="none" 
	d="
M468.468658,961.000000 
	C471.800873,958.199829 476.424561,959.386780 480.526947,958.981628 
	C509.451630,956.125183 537.905090,950.702209 565.948364,943.359009 
	C589.872253,937.094421 613.215881,928.918945 635.965210,919.087463 
	C664.410034,906.794678 691.678894,892.285522 717.694275,875.520813 
	C738.215515,862.296692 757.696106,847.639099 775.890442,831.251648 
	C784.436951,823.553955 792.586975,815.492981 800.585754,807.281555 
	C815.889526,791.570984 829.483887,774.435913 842.216797,756.567993 
	C860.125061,731.437561 874.980164,704.559692 888.144836,676.755249 
	C903.980408,643.309631 915.570862,608.399841 921.483704,571.792053 
	C924.020020,556.088867 925.008179,540.208984 925.936829,524.298950 
	C926.753479,510.307281 926.787476,496.348633 926.528198,482.404602 
	C926.164734,462.856140 924.726135,443.347595 922.828247,423.857239 
	C919.677673,391.501801 914.659424,359.481842 906.543579,328.024902 
	C900.683228,305.309753 892.006165,283.647217 880.653809,262.988647 
	C865.299316,235.047165 845.955505,210.291092 823.122620,188.197830 
	C799.376892,165.221329 772.912903,145.787262 744.345398,129.265991 
	C718.007935,114.034409 691.085632,99.971489 661.865906,90.895454 
	C641.569763,84.591225 620.789917,80.518700 599.819031,77.251930 
	C593.614197,76.285355 587.343201,75.461212 581.349060,73.389450 
	C579.443237,72.730728 577.321594,72.226616 576.933655,69.897461 
	C576.499817,67.293808 578.576721,66.001457 580.365234,64.861557 
	C589.625671,58.959572 600.037048,58.879253 610.329651,59.917912 
	C634.716858,62.378906 658.021606,69.482773 681.052979,77.527672 
	C705.585510,86.096939 728.911011,97.218216 751.461060,110.141571 
	C767.750732,119.477089 783.599060,129.482269 799.305237,139.727234 
	C820.651367,153.651047 840.803040,169.151581 858.080994,187.964096 
	C877.331970,208.924881 893.683472,231.996872 907.182373,257.149597 
	C925.447754,291.183624 938.141663,327.200256 946.797302,364.719421 
	C951.191223,383.765289 954.436401,403.011536 956.433899,422.481293 
	C957.889771,436.673157 958.818909,450.871948 959.576477,465.116486 
	C960.071777,474.428711 960.569641,483.736176 960.238220,493.015045 
	C959.558167,512.055725 958.584656,531.071289 956.554932,550.059265 
	C953.288025,580.621338 947.780090,610.694092 939.344177,640.223816 
	C928.802734,677.123901 913.999695,712.201355 893.992188,745.022156 
	C879.158997,769.354675 861.890869,791.759521 842.503479,812.684753 
	C822.439087,834.340881 800.164734,853.352173 776.962952,871.474365 
	C756.876343,887.163391 735.392822,900.666626 713.799377,914.075195 
	C708.896118,917.119934 703.944153,920.348206 700.265625,924.963257 
	C697.896362,927.935730 694.734497,931.321655 696.956909,935.222656 
	C699.293152,939.323303 704.033142,940.109924 708.446350,939.521423 
	C714.344299,938.734985 720.168152,937.455750 725.921692,935.782532 
	C751.536194,928.333435 773.775024,914.543152 795.377502,899.428467 
	C810.218628,889.044678 824.308167,877.699219 838.358276,866.314453 
	C847.375305,859.008057 856.067810,851.267456 864.540894,843.331909 
	C876.199158,832.413391 887.800598,821.405945 898.916077,809.941711 
	C925.544800,782.477539 950.143799,753.429993 968.759277,719.690369 
	C983.016846,693.849121 994.464355,666.940430 1002.940674,638.648804 
	C1010.624451,613.002502 1015.926208,586.891113 1019.397888,560.430237 
	C1021.010010,548.143066 1022.401611,535.762451 1022.758240,523.312134 
	C1022.928223,517.376770 1023.783630,511.461060 1024.664307,505.268219 
	C1025.000000,656.934387 1025.000000,808.868713 1025.000000,961.000000 
	C839.645813,961.000000 654.291565,961.000000 468.468658,961.000000 
M897.155518,881.367615 
	C900.271240,879.489990 897.326050,875.690735 899.509399,873.445190 
	C901.694519,875.920471 899.849854,881.052856 904.232239,881.421570 
	C909.525513,881.867065 906.656921,875.619995 909.833313,873.585693 
	C910.005188,874.797241 910.183228,875.878357 910.307312,876.965576 
	C910.520386,878.833496 909.772644,881.505371 912.865356,881.368530 
	C915.508728,881.251648 915.630310,878.922791 915.638184,876.849304 
	C915.654541,872.516479 915.641357,868.183533 915.660339,863.850769 
	C915.670105,861.611633 915.826111,859.419434 912.534180,859.351562 
	C909.823730,859.295715 907.699829,859.481567 906.959412,862.827087 
	C906.426636,865.234558 906.243103,867.916870 904.172424,870.307007 
	C903.342651,867.379700 902.388306,864.893372 901.969727,862.319885 
	C901.407593,858.864014 898.980286,859.384888 896.679260,859.367981 
	C894.018311,859.348511 893.314819,860.885620 893.348633,863.253540 
	C893.415222,867.918457 893.338501,872.585327 893.363953,877.251099 
	C893.375488,879.360840 893.653320,881.351746 897.155518,881.367615 
M882.839844,881.098816 
	C885.668091,881.355469 885.611267,879.334473 885.641907,877.470520 
	C885.693848,874.305481 885.709106,871.138733 885.668823,867.973694 
	C885.638184,865.562134 886.052124,863.631470 889.096741,863.652893 
	C890.361877,863.661743 891.457703,863.174683 891.473083,861.676697 
	C891.487671,860.249084 890.516113,859.535156 889.227539,859.512329 
	C885.065918,859.438721 880.901978,859.437561 876.739929,859.488220 
	C875.676208,859.501160 874.831177,860.086731 874.638245,861.252563 
	C874.484131,862.183655 874.938416,863.209961 875.714905,863.251709 
	C881.906006,863.585388 879.881592,868.233276 880.391296,871.689209 
	C880.847900,874.784973 878.673279,878.409729 882.839844,881.098816 
z"/>
<path fill="#000000" opacity="1.000000" stroke="none" 
	d="
M1025.000000,423.531342 
	C1022.086914,419.479034 1023.416443,414.209717 1023.006042,409.419739 
	C1020.350952,378.430573 1014.139709,348.146698 1005.470337,318.387848 
	C999.437195,297.678162 991.868530,277.447998 983.425659,257.568359 
	C977.899170,244.555664 971.862610,231.780670 965.245178,219.300629 
	C953.715942,197.557419 940.346069,176.986359 925.333618,157.466263 
	C914.278687,143.092026 902.486328,129.345535 889.455383,116.778572 
	C864.622375,92.829651 837.268982,72.184547 807.038696,55.398232 
	C771.342102,35.576557 733.369141,21.837929 693.655884,12.841980 
	C676.540283,8.964904 659.240051,5.903143 641.722900,4.295143 
	C632.672119,3.464315 623.632141,2.516034 614.293640,1.310411 
	C750.928101,1.000000 887.856201,1.000000 1025.000000,1.000000 
	C1025.000000,141.687485 1025.000000,282.375092 1025.000000,423.531342 
z"/>
<path fill="#000000" opacity="1.000000" stroke="none" 
	d="
M240.357910,365.268982 
	C263.005463,353.300201 284.487091,339.951721 307.378235,329.201263 
	C323.939819,321.423431 340.954163,314.737061 357.857635,307.778259 
	C370.520538,302.565186 381.374207,295.717285 388.609375,283.094116 
	C397.843079,266.984039 408.657440,251.776260 418.883118,236.240509 
	C422.080933,231.382126 426.982880,228.944305 432.537933,227.843536 
	C481.747772,218.092453 530.958740,208.346939 580.185120,198.679886 
	C589.603088,196.830399 598.904419,194.380356 608.524231,193.531616 
	C617.926514,192.702057 623.998657,196.933487 626.302795,206.107544 
	C630.538391,222.971939 635.001221,239.779770 639.144958,256.666290 
	C639.791687,259.301666 641.117249,260.564423 643.342346,261.666443 
	C656.656128,268.260529 670.875793,272.409363 685.029541,276.515564 
	C711.519470,284.200714 737.472900,293.147949 762.355042,305.150818 
	C775.379761,311.433807 788.614929,317.286743 801.098877,324.626495 
	C806.370117,327.725708 810.973572,331.538544 811.315186,338.325439 
	C811.762146,347.204468 806.046570,353.218231 797.240723,354.429474 
	C788.926208,355.573181 780.752075,354.917297 772.463196,354.500885 
	C761.328064,353.941559 750.112793,353.820526 738.988342,354.472382 
	C721.361938,355.505188 703.722595,354.763123 686.121460,355.498352 
	C669.716309,356.183655 653.310608,356.816589 636.903442,357.455963 
	C620.168335,358.108185 603.410706,358.890656 586.747192,360.492798 
	C564.986267,362.585022 543.166016,363.901703 521.409424,366.114960 
	C503.455872,367.941254 485.481964,369.721680 467.523682,371.534698 
	C447.106720,373.595978 426.787781,376.621338 406.419037,379.169983 
	C389.491974,381.288055 372.533752,383.168732 355.627716,385.440216 
	C340.702698,387.445587 325.874084,390.212555 310.924652,391.981842 
	C290.504974,394.398621 270.388000,398.622131 250.054276,401.542419 
	C238.399033,403.216309 226.776459,404.862671 215.008102,405.352112 
	C212.165375,405.470306 209.405472,405.101105 206.623520,404.431549 
	C200.580002,402.977112 198.863953,399.213837 202.066956,393.896667 
	C206.144287,387.128021 212.579147,382.864075 218.896912,378.612213 
	C225.779083,373.980530 232.975998,369.816498 240.357910,365.268982 
z"/>
<path fill="#000000" opacity="1.000000" stroke="none" 
	d="
M431.040649,749.329834 
	C423.053375,749.230774 421.008911,747.458313 420.750275,739.485535 
	C420.335297,726.695862 420.178986,713.869629 423.078949,701.288696 
	C424.008514,697.255798 423.277069,695.892029 419.009735,697.164734 
	C405.474243,701.201477 392.413635,706.521240 379.352661,711.817383 
	C374.278564,713.874939 372.335144,718.385803 371.306915,723.607422 
	C367.560791,742.631348 363.717163,761.656006 356.073151,779.614685 
	C351.153076,791.173767 340.438263,796.235535 330.345154,791.968140 
	C326.774963,790.458618 324.497742,787.983276 323.569092,783.990356 
	C321.070831,773.248596 322.343292,762.679749 324.395233,752.087280 
	C326.163422,742.959778 328.716003,734.035461 331.270752,725.111938 
	C332.385834,721.217041 331.635040,719.259949 326.976532,719.191040 
	C323.059814,719.133179 319.096222,718.227966 315.265625,717.255676 
	C308.647522,715.575806 305.068085,710.568726 302.987183,704.527771 
	C301.212067,699.374451 304.166718,693.901611 309.776520,690.992126 
	C316.863220,687.316650 324.671661,686.679871 332.391296,685.683044 
	C335.512543,685.279968 338.652679,684.991089 341.752441,684.463440 
	C344.750427,683.953125 346.579926,682.122925 347.882538,679.276184 
	C355.486938,662.657471 362.601990,645.799377 371.190399,629.651367 
	C377.760590,617.298096 385.480377,605.695068 395.892365,596.177429 
	C398.329529,593.949585 401.309875,590.120422 404.751434,592.492432 
	C407.347656,594.281799 406.976349,598.432556 406.639160,602.051697 
	C404.428497,625.778992 395.611969,647.737793 388.843781,670.246643 
	C388.327301,671.964294 387.281067,673.564392 387.556335,675.792664 
	C391.062744,676.695435 394.298981,675.143250 397.544403,674.416321 
	C407.084595,672.279297 416.529877,669.706299 426.095459,667.700195 
	C430.663300,666.742188 433.299835,664.439331 434.939758,660.129028 
	C438.954437,649.577087 443.184875,639.104126 447.507294,628.673462 
	C452.022034,617.778687 457.001221,607.111389 463.746796,597.353271 
	C465.680603,594.555908 468.235504,592.398987 470.767517,590.309387 
	C474.568939,587.171997 478.191742,588.373169 480.043030,592.927917 
	C483.230743,600.770630 480.563080,608.342834 478.723785,615.844238 
	C476.078339,626.633240 472.943756,637.300476 470.792542,648.214783 
	C470.432373,650.042053 470.073914,651.767761 470.898590,653.621704 
	C472.967896,654.498413 474.739319,653.490540 476.530701,652.721008 
	C479.295227,651.533508 482.080322,650.496948 485.175171,650.665466 
	C486.995422,650.764587 489.065338,650.442810 489.919189,652.556641 
	C490.705261,654.502502 489.483002,656.104614 488.333832,657.528564 
	C485.140594,661.485352 481.010193,664.415649 476.549957,666.584534 
	C469.543701,669.991455 465.631714,675.565491 463.648590,682.774292 
	C460.873596,692.861633 459.862122,703.262756 458.361542,713.572876 
	C457.210327,721.482605 455.595825,729.262024 452.126343,736.521057 
	C447.998810,745.156860 441.232544,749.661804 431.040649,749.329834 
z"/>
<path fill="#000000" opacity="1.000000" stroke="none" 
	d="
M621.092651,534.401855 
	C615.727295,535.059692 610.787476,536.312256 605.879150,536.199280 
	C594.385254,535.934631 582.948425,537.002075 571.523315,537.591370 
	C561.049133,538.131592 550.598389,538.242188 540.133484,538.343201 
	C534.201660,538.400452 533.739014,537.706055 533.638000,531.643311 
	C533.508728,523.887451 537.793152,518.032227 542.277405,512.562927 
	C551.681763,501.092834 563.497498,492.126678 574.775574,482.625061 
	C583.076172,475.631805 591.363037,468.622223 599.885010,461.426636 
	C597.275391,458.631042 594.571777,459.339142 592.045105,459.684998 
	C581.862122,461.078735 571.738892,462.905121 561.368896,462.396515 
	C552.385315,461.955994 545.049194,457.159882 543.396423,450.238708 
	C541.879578,443.886566 545.036987,438.552032 551.536621,437.563202 
	C561.670837,436.021454 571.880371,434.979553 582.050598,433.668823 
	C593.046021,432.251831 604.037598,430.803223 615.021973,429.303040 
	C621.637146,428.399597 628.207703,428.138855 634.796448,429.597382 
	C645.139404,431.886993 647.831421,438.342590 644.169739,449.021118 
	C641.375000,457.171204 635.173401,463.483978 628.391724,469.111694 
	C620.454407,475.698395 613.490723,483.346436 606.827515,491.239532 
	C602.842834,495.959686 597.831970,499.559418 593.110413,503.464905 
	C588.479187,507.295746 588.693726,508.912048 594.356812,511.219452 
	C600.771545,513.833130 607.660889,513.947876 614.386475,514.550598 
	C623.688354,515.384277 632.962280,514.339478 642.127991,512.541504 
	C647.258484,511.535065 648.270142,510.010529 647.447327,505.079437 
	C644.665771,488.411469 649.921997,474.157410 661.478271,462.393127 
	C680.128784,443.406921 703.057861,432.615479 729.278259,428.567200 
	C737.298401,427.328888 745.232300,425.806732 753.423096,427.581604 
	C756.420959,428.231232 757.847046,429.201874 758.625000,432.389984 
	C760.676514,440.796753 757.106750,448.022552 754.644409,455.529663 
	C752.888245,460.883881 750.984436,466.197144 751.362549,471.990662 
	C751.592346,475.512451 752.977844,477.775391 756.687805,478.721527 
	C763.551208,480.471893 770.514771,482.011475 777.032227,485.222351 
	C776.166809,493.161652 771.118896,497.229248 764.382263,499.062469 
	C751.196960,502.650604 737.976501,504.480713 725.536865,496.279999 
	C722.476624,494.262573 720.063599,494.860626 717.318970,497.632874 
	C706.526184,508.534515 692.980225,513.940308 678.057861,516.414490 
	C671.285461,517.537354 664.559021,517.976685 657.788818,516.529053 
	C656.210938,516.191589 654.863037,516.582031 653.894531,518.050537 
	C648.067017,526.885681 638.940247,530.270264 629.324158,532.780334 
	C626.762634,533.448975 624.131653,533.851440 621.092651,534.401855 
M719.459595,453.334778 
	C701.877319,458.076050 688.777832,467.793823 682.606140,485.934509 
	C704.409424,485.996674 724.415710,469.811157 723.972534,452.990479 
	C722.648865,451.939636 721.466675,453.108948 719.459595,453.334778 
z"/>
<path fill="#000000" opacity="1.000000" stroke="none" 
	d="
M305.906738,532.852234 
	C312.721558,529.239136 318.788177,525.101807 324.278107,520.276062 
	C332.220245,513.294739 337.725189,504.578766 339.427887,494.047333 
	C340.699707,486.181061 337.038177,479.641815 331.337067,474.613403 
	C322.472198,466.794586 311.329865,464.686707 300.015656,463.405823 
	C297.541138,463.125641 295.741730,464.181213 295.432770,466.862213 
	C293.027313,487.736664 284.429779,506.769989 277.802368,526.391479 
	C276.690338,529.683838 275.329895,533.019043 274.996735,536.423767 
	C274.016663,546.439148 267.436127,553.987183 263.877869,562.851562 
	C256.761871,580.579102 251.200089,598.860779 244.317627,616.663025 
	C239.782089,628.394714 236.096436,640.629456 226.439407,649.598450 
	C225.586075,650.391052 224.852112,651.404663 223.860184,651.941345 
	C213.244690,657.684937 210.189438,655.662292 208.750687,645.130127 
	C206.218475,626.593567 211.410629,608.976990 216.361893,591.481323 
	C225.114639,560.552673 236.690567,530.696533 251.758835,502.250397 
	C256.892609,492.558746 262.729340,483.288605 268.684570,474.089996 
	C269.574890,472.714752 271.029999,471.225433 270.110992,469.614258 
	C268.959412,467.595306 266.947968,468.637543 265.161407,468.989227 
	C256.698395,470.655212 251.888870,468.365112 249.976898,461.868408 
	C248.774719,457.783569 252.873322,449.878052 257.856201,446.070557 
	C270.779633,436.195465 285.527985,431.566742 301.510376,429.471313 
	C312.463989,428.035187 323.093628,428.685120 333.470428,431.788452 
	C354.554932,438.094055 368.839355,451.625610 372.924896,473.644257 
	C375.636841,488.260223 370.494843,501.532623 361.654022,513.273132 
	C345.853699,534.255798 324.636810,546.699585 299.189850,552.076355 
	C293.725067,553.231018 288.028442,553.437622 282.347443,553.444275 
	C277.973022,553.449463 275.430389,551.936401 274.121704,547.228943 
	C284.587128,542.529785 295.104492,537.807373 305.906738,532.852234 
z"/>
<path fill="#000000" opacity="1.000000" stroke="none" 
	d="
M518.006592,571.351318 
	C491.525604,571.500549 465.861755,573.939514 440.856750,581.553528 
	C436.447449,582.896240 431.816895,583.785461 427.226440,584.204956 
	C416.612305,585.174927 413.323486,578.605713 416.663696,568.094666 
	C418.924438,560.980530 423.832947,555.137939 429.023926,549.609375 
	C439.466339,538.487854 451.368652,528.852905 461.766510,517.779297 
	C471.205536,507.726776 481.064758,498.105042 490.521912,488.085968 
	C491.177368,487.391602 491.651581,486.526123 492.797913,484.913025 
	C486.322388,485.520447 480.649994,485.843536 475.041718,486.626099 
	C465.928741,487.897705 456.853210,487.943634 447.849365,486.127563 
	C444.275970,485.406799 440.835083,483.887115 438.865021,480.449615 
	C435.354065,474.323303 437.825623,468.386444 444.621399,466.636536 
	C455.900421,463.732147 467.505615,462.653870 479.023956,461.882416 
	C495.073120,460.807465 511.120605,459.153381 527.264099,459.620056 
	C536.187927,459.877991 538.317566,462.690063 536.863037,471.843567 
	C535.338013,481.440857 528.970581,488.111053 523.585754,495.390106 
	C513.623840,508.856262 500.932007,519.710632 488.909363,531.198242 
	C484.333923,535.570068 480.444611,540.471741 476.593048,546.663940 
	C480.692719,546.663940 484.118195,546.748779 487.538391,546.650391 
	C512.981689,545.918030 538.278320,547.755920 563.553528,550.518677 
	C571.822632,551.422546 580.107788,550.165588 588.168701,547.897278 
	C595.213013,545.915039 602.279846,544.274353 609.719482,544.615234 
	C613.833191,544.803711 614.399597,546.445129 613.297119,550.013123 
	C612.250732,553.399292 609.535461,555.106018 607.017883,556.821960 
	C594.925293,565.063904 581.250488,568.744324 566.869629,570.394287 
	C550.768799,572.241516 534.623230,570.906921 518.006592,571.351318 
z"/>
<path fill="#000000" opacity="1.000000" stroke="none" 
	d="
M635.974243,706.787109 
	C634.718079,711.860474 633.649963,716.615112 629.840759,720.020935 
	C625.858337,723.581787 623.445007,722.840881 621.512817,717.886169 
	C615.484558,702.428223 617.581421,686.877014 621.256165,671.450928 
	C624.444580,658.066467 628.266052,644.830383 631.958252,631.570618 
	C632.645081,629.104004 632.611511,626.679504 632.868347,623.626282 
	C627.887817,623.239868 622.961426,623.169189 618.110107,622.381653 
	C609.820312,621.035889 605.568787,616.289001 605.600342,608.453491 
	C605.616516,604.425598 607.641235,602.199646 611.059509,601.072083 
	C613.553772,600.249451 616.132263,599.683716 618.857056,599.620239 
	C626.486267,599.442566 634.107178,598.933167 641.735413,598.673950 
	C644.549316,598.578247 646.334717,597.223267 647.751465,594.939270 
	C654.053467,584.780273 660.340637,574.610840 666.778320,564.537964 
	C669.659424,560.029907 672.959290,555.844849 678.285095,553.882446 
	C684.333374,551.653870 688.809937,554.612488 689.358398,561.032349 
	C690.074402,569.413513 686.111084,576.470337 683.259338,583.862732 
	C682.638733,585.471436 680.442566,586.915588 681.886841,588.787964 
	C683.277222,590.590454 685.236572,589.202209 686.965088,588.836548 
	C702.179504,585.617554 717.378235,582.319092 732.627930,579.276001 
	C737.477295,578.308289 742.395081,577.381592 747.417603,577.689514 
	C748.800781,577.774353 750.205444,577.876648 750.800354,579.303284 
	C751.444580,580.848389 750.187622,581.811890 749.240723,582.672180 
	C743.213806,588.148071 735.626038,590.960266 728.359131,594.042053 
	C710.964050,601.418823 693.405029,608.467346 675.133606,613.463989 
	C667.826782,615.462158 665.871948,621.654907 663.780457,627.534973 
	C654.443054,653.786560 645.324097,680.115845 635.974243,706.787109 
z"/>
<path fill="#000000" opacity="1.000000" stroke="none" 
	d="
M491.850830,681.481323 
	C494.047180,669.390442 499.136963,658.631348 502.039612,647.210815 
	C502.990997,643.467651 502.766693,641.110352 498.882751,639.171936 
	C493.890900,636.680664 493.669189,634.511047 497.882324,631.055664 
	C504.531036,625.602722 512.316589,625.163086 519.929871,628.202026 
	C527.497742,631.222900 528.588745,638.574219 529.285522,645.601135 
	C530.080444,653.616943 528.030396,661.422913 526.866821,669.277832 
	C526.599609,671.081726 525.990601,672.801941 526.927490,674.838379 
	C531.594727,673.850403 535.408142,671.190063 539.163696,668.556824 
	C555.637451,657.005859 567.500305,641.267822 578.606812,624.851990 
	C581.875183,620.021240 585.496521,615.511780 590.337708,612.086304 
	C593.791077,609.642761 596.238281,610.634888 598.015076,614.058960 
	C600.479919,618.808838 600.941956,624.034790 600.202515,629.134644 
	C598.258240,642.544006 595.416382,655.856567 594.625244,669.387756 
	C594.065247,678.965515 593.363342,688.661194 595.223999,698.212769 
	C595.748779,700.907043 594.711426,701.922546 592.354126,702.257202 
	C586.422668,703.099365 581.591187,701.139771 577.828247,696.499207 
	C573.396179,691.033447 570.330322,684.774414 567.271667,678.497986 
	C566.284546,676.472473 565.775452,674.041748 563.190979,672.695801 
	C556.973877,679.269226 550.849365,685.964722 544.479370,692.417847 
	C538.135620,698.844482 530.908081,704.012085 522.350830,707.264832 
	C513.995239,710.440979 506.075592,709.795715 498.552826,705.121765 
	C493.740265,702.131714 492.210480,697.159912 491.735596,691.904114 
	C491.437500,688.604492 491.727936,685.251770 491.850830,681.481323 
z"/>
<path fill="#000000" opacity="1.000000" stroke="none" 
	d="
M421.376343,505.134827 
	C416.941193,520.096130 409.852661,533.458008 403.026611,546.941406 
	C398.757263,555.374634 394.337799,563.750793 391.656158,572.883728 
	C391.562469,573.202759 391.554871,573.614868 391.346558,573.822266 
	C388.928955,576.229492 393.008362,582.046631 386.392883,582.463318 
	C379.196136,582.916504 373.745850,580.891968 370.199188,574.346069 
	C365.131683,564.993225 365.891144,554.983398 367.420593,545.175537 
	C370.276367,526.862122 381.247864,512.372253 391.238281,497.510681 
	C397.617859,488.020538 405.223480,479.356537 409.907379,468.727600 
	C411.481812,465.154816 419.661377,465.791565 421.776276,469.432800 
	C424.716888,474.495575 425.299255,480.312744 425.045990,485.786835 
	C424.751740,492.145691 423.916290,498.666138 421.376343,505.134827 
z"/>
<path fill="#000000" opacity="1.000000" stroke="none" 
	d="
M463.113098,403.834351 
	C454.283112,419.116547 444.564545,433.291840 433.131348,446.270294 
	C429.683624,450.183990 425.158234,451.620392 420.357361,452.258484 
	C412.647949,453.283234 408.960175,449.857758 408.727966,441.361633 
	C408.487610,432.566254 411.328186,424.501434 417.039886,417.979065 
	C427.338257,406.219147 439.237732,396.496185 454.817657,392.412415 
	C458.161102,391.536041 462.282837,390.103485 464.563354,393.184265 
	C466.851593,396.275421 465.183472,400.201172 463.113098,403.834351 
z"/>
</svg>