<svg width="195" height="36" viewBox="0 0 195 36" fill="none" xmlns="http://www.w3.org/2000/svg">
<path d="M5.76 35.584C4.94933 35.2853 4.096 34.9013 3.2 34.432C2.304 34.0053 1.536 33.4293 0.896001 32.704C0.298667 31.9787 7.15256e-07 31.104 7.15256e-07 30.08C7.15256e-07 29.6107 0.0640007 29.1413 0.192001 28.672C0.320001 28.16 0.576001 27.7547 0.960001 27.456C1.00267 27.6267 1.00267 27.7973 0.960001 27.968C0.960001 28.1387 0.960001 28.3307 0.960001 28.544C0.960001 29.9093 1.45067 30.912 2.432 31.552C3.41333 32.192 4.50133 32.512 5.696 32.512C7.06133 32.512 8.32 32.1707 9.472 31.488C10.6667 30.8053 11.6693 29.9947 12.48 29.056V28.608H12.544L12.928 28.096C13.1413 28.0107 13.3333 27.904 13.504 27.776C13.6747 27.648 13.824 27.52 13.952 27.392V26.88C14.5493 26.5813 15.0827 26.0907 15.552 25.408C16.064 24.6827 16.4907 24.0427 16.832 23.488C17.1733 23.488 17.408 23.296 17.536 22.912C17.664 22.4853 17.7493 22.144 17.792 21.888L17.856 21.824L17.792 21.696C16.896 21.696 15.9787 21.8027 15.04 22.016C14.144 22.1867 13.2267 22.3147 12.288 22.4C11.4773 23.0827 10.56 23.424 9.536 23.424C9.06667 23.424 8.576 23.296 8.064 23.04C7.552 22.784 7.296 22.3787 7.296 21.824C7.296 21.5253 7.40267 21.1627 7.616 20.736C7.872 20.3093 8.17067 19.9253 8.512 19.584C8.896 19.2 9.23733 19.008 9.536 19.008L9.664 19.392H10.688C11.1573 19.392 11.6053 19.3707 12.032 19.328C12.5013 19.2853 12.9493 19.264 13.376 19.264L13.952 18.944L14.528 19.264C14.7413 19.0933 15.168 19.008 15.808 19.008C16.4053 19.008 17.0667 19.0507 17.792 19.136C18.56 19.2213 19.136 19.2427 19.52 19.2C19.8613 18.4747 20.224 17.792 20.608 17.152C20.992 16.4693 21.312 15.7867 21.568 15.104L22.016 14.72C22.4 13.2693 22.8693 11.8613 23.424 10.496C23.9787 9.088 24.4907 7.68 24.96 6.272H22.72C22.2507 6.272 21.76 6.29333 21.248 6.336C20.7787 6.37866 20.3307 6.50666 19.904 6.72L19.136 6.656C18.5387 6.57066 17.9413 6.63466 17.344 6.848C16.7893 7.06133 16.256 7.296 15.744 7.552L15.488 7.488L15.296 7.68C13.0347 8.064 10.8587 8.93867 8.768 10.304C6.72 11.6693 4.992 13.248 3.584 15.04L4.224 15.424L5.376 15.296L5.568 15.488C5.35467 15.7013 5.09867 15.872 4.8 16C4.50133 16.128 4.20267 16.2347 3.904 16.32L3.392 15.872L2.88 16.064C2.752 15.808 2.688 15.5733 2.688 15.36C2.688 14.592 3.05067 13.7387 3.776 12.8C4.544 11.8613 5.184 11.1147 5.696 10.56V10.176C6.592 9.45066 7.72267 8.72533 9.088 8C10.496 7.232 12.0107 6.54933 13.632 5.952C15.2533 5.35466 16.8747 4.88533 18.496 4.544C20.1173 4.16 21.5893 3.968 22.912 3.968C23.2107 3.968 23.488 3.98933 23.744 4.032C24 4.032 24.256 4.05333 24.512 4.096C24.6827 3.968 24.8747 3.88266 25.088 3.84C25.3013 3.79733 25.4933 3.75466 25.664 3.712L25.344 3.648C25.6853 3.09333 25.856 2.51733 25.856 1.92C25.9413 1.87733 26.0267 1.83466 26.112 1.792C26.24 1.74933 26.3467 1.728 26.432 1.728C26.9013 1.728 27.52 1.77066 28.288 1.856C29.0987 1.94133 29.8027 2.15466 30.4 2.496C31.04 2.79467 31.3173 3.30666 31.232 4.032C31.9573 3.94666 32.6827 3.904 33.408 3.904C34.1333 3.86133 34.8587 3.84 35.584 3.84C36.864 3.84 38.144 3.92533 39.424 4.096C40.7467 4.26666 41.984 4.71466 43.136 5.44L42.944 5.696C43.072 6.12266 43.328 6.4 43.712 6.528L43.904 7.04L43.456 7.36L43.712 8.064C43.4133 8.87466 43.1147 9.408 42.816 9.664C42.5173 9.92 41.92 10.0907 41.024 10.176L40.512 9.856L38.336 10.816L38.272 10.752L38.528 10.176V10.112C38.272 10.3253 37.9947 10.5173 37.696 10.688C37.3973 10.8587 37.0773 10.9653 36.736 11.008L36.544 10.88L36.736 10.688C37.5467 10.432 38.2293 10.0267 38.784 9.472C39.3387 8.91733 39.8293 8.29866 40.256 7.616L40.128 6.592L38.4 5.76L38.336 5.568C37.7813 5.39733 37.2053 5.312 36.608 5.312C36.0107 5.26933 35.4133 5.248 34.816 5.248C34.2187 5.248 33.6213 5.312 33.024 5.44C32.4693 5.568 31.8933 5.65333 31.296 5.696L31.552 6.208C31.5093 6.37867 31.424 6.67733 31.296 7.104C31.168 7.53066 30.9973 7.76533 30.784 7.808L30.016 7.296L29.952 7.36C29.9093 7.91466 29.76 8.46933 29.504 9.024C29.248 9.536 28.9493 10.0053 28.608 10.432C27.8827 10.4747 27.52 10.88 27.52 11.648L27.904 11.904L28.16 11.52L28.416 11.456L28.544 11.648C28.2453 12.1173 27.9253 12.4587 27.584 12.672C27.2427 12.672 26.944 12.8 26.688 13.056C26.4747 13.312 26.1973 13.4613 25.856 13.504C25.5147 13.6747 25.28 13.9093 25.152 14.208C25.0667 14.5067 24.7893 14.784 24.32 15.04L24.384 15.168C24.2133 15.3387 23.936 15.68 23.552 16.192C23.2107 16.6613 22.8907 17.152 22.592 17.664C22.2933 18.1333 22.1227 18.496 22.08 18.752H22.208L22.4 19.136C22.8267 19.008 23.232 18.944 23.616 18.944C24 18.9013 24.4053 18.88 24.832 18.88C25.2587 18.88 25.664 18.88 26.048 18.88C26.432 18.88 26.816 18.8587 27.2 18.816C31.4667 18.0907 35.648 17.5147 39.744 17.088L40.064 16.96L40.192 17.088C40.064 17.4293 39.5093 17.7493 38.528 18.048C37.5893 18.3467 36.4373 18.624 35.072 18.88C33.7067 19.0933 32.32 19.2853 30.912 19.456C29.504 19.6267 28.224 19.7547 27.072 19.84C25.9627 19.9253 25.1733 19.968 24.704 19.968C24.704 20.1387 24.3627 20.3307 23.68 20.544C22.9973 20.7573 22.272 20.992 21.504 21.248C20.7787 21.4613 20.2667 21.76 19.968 22.144V22.976L19.648 22.848C19.3067 22.8907 19.072 23.0613 18.944 23.36C18.816 23.616 18.7307 23.9147 18.688 24.256C18.2613 24.512 17.856 24.832 17.472 25.216C17.088 25.5573 16.6827 25.8987 16.256 26.24L16.32 26.944H16.064C15.9787 27.2427 15.7227 27.5413 15.296 27.84C14.912 28.096 14.592 28.3307 14.336 28.544L14.016 29.12L14.336 29.376L13.888 29.632C13.504 30.1867 12.8853 30.8907 12.032 31.744C11.2213 32.5973 10.5173 33.152 9.92 33.408C9.408 34.048 8.78933 34.5173 8.064 34.816C7.33867 35.1147 6.57067 35.3707 5.76 35.584ZM25.216 11.264H25.92L25.984 10.944L25.92 10.688C25.7067 10.7307 25.472 10.9227 25.216 11.264ZM26.816 11.136L27.008 10.88L26.88 10.752H26.752L26.624 10.944L26.816 11.136ZM25.344 12.288L25.28 11.968L25.024 12.16L25.344 12.288ZM25.536 13.44L25.728 13.376L25.792 13.056L25.6 12.992L25.472 13.376L25.536 13.44ZM6.272 15.104L6.4 14.72L6.592 14.784L6.656 15.04L6.592 15.104H6.272ZM46.872 35.392L45.592 33.92C45.3787 33.0667 45.144 32.192 44.888 31.296C44.6747 30.4427 44.5253 29.568 44.44 28.672L44.76 27.456L44.632 27.392C44.8027 26.9227 44.9733 26.4533 45.144 25.984C45.3573 25.472 45.464 24.9813 45.464 24.512C45.2507 24.7253 45.016 24.9387 44.76 25.152C44.5467 25.3653 44.376 25.6213 44.248 25.92C44.0773 26.0907 43.928 26.304 43.8 26.56C43.672 26.816 43.5013 27.0293 43.288 27.2L43.224 27.776C42.6267 27.904 42.0293 28.2027 41.432 28.672C40.8773 29.0987 40.3227 29.5253 39.768 29.952C39.2133 30.336 38.616 30.528 37.976 30.528C37.6773 30.528 37.2933 30.5067 36.824 30.464C36.3973 30.3787 36.0773 30.2507 35.864 30.08C35.3093 29.952 34.904 29.8027 34.648 29.632C34.4347 29.4187 34.264 29.0347 34.136 28.48L34.392 27.648L34.2 27.136C34.4133 26.4533 34.5627 25.9627 34.648 25.664C34.776 25.3653 34.9467 25.1093 35.16 24.896C35.416 24.6827 35.8213 24.3627 36.376 23.936C36.4187 23.7227 36.5253 23.5733 36.696 23.488C36.9093 23.36 37.1013 23.2747 37.272 23.232L37.336 22.912L37.976 22.144L38.168 22.272L38.552 21.696C38.8507 21.4827 39.1493 21.3547 39.448 21.312C39.7893 21.2267 40.1093 21.0987 40.408 20.928C40.4933 20.4587 40.7707 20.1813 41.24 20.096C41.752 19.968 42.0507 19.7333 42.136 19.392H42.392L43.48 18.688L43.864 18.88L44.76 18.304C45.016 18.304 45.2507 18.2827 45.464 18.24C45.72 18.1973 45.9547 18.176 46.168 18.176L46.424 18.304C45.5707 18.6027 44.5893 19.0933 43.48 19.776C42.3707 20.416 41.2827 21.184 40.216 22.08C39.192 22.9333 38.3387 23.872 37.656 24.896C36.9733 25.92 36.632 26.944 36.632 27.968C36.632 28.7787 37.0587 29.184 37.912 29.184C38.68 29.184 39.4693 28.9493 40.28 28.48C41.1333 28.0107 41.9013 27.4347 42.584 26.752C43.2667 26.0693 43.7573 25.408 44.056 24.768L45.144 23.872C45.2293 23.6587 45.336 23.5093 45.464 23.424C45.592 23.3387 45.6773 23.1893 45.72 22.976C46.0187 22.9333 46.232 22.6773 46.36 22.208C46.488 21.7387 46.6373 21.2267 46.808 20.672C46.9787 20.0747 47.2133 19.5627 47.512 19.136C47.8107 18.7093 48.2587 18.496 48.856 18.496C49.3253 18.496 49.8587 18.7093 50.456 19.136C51.0533 19.52 51.352 19.9893 51.352 20.544C51.352 20.8427 51.096 21.4187 50.584 22.272C50.072 23.1253 49.4747 24.128 48.792 25.28C48.152 26.432 47.576 27.6267 47.064 28.864C46.552 30.1013 46.296 31.2747 46.296 32.384C46.296 32.8533 46.3813 33.3227 46.552 33.792C46.7653 34.2613 46.8933 34.7307 46.936 35.2L46.872 35.392ZM49.0685 34.944C48.8125 34.56 48.6845 34.176 48.6845 33.792C48.6845 33.4933 48.7485 33.216 48.8765 32.96C48.9618 32.704 49.0685 32.4693 49.1965 32.256H49.2605L49.1965 32.192C49.4952 31.7653 49.9645 31.2107 50.6045 30.528C51.2872 29.8453 52.0125 29.2267 52.7805 28.672C53.5485 28.1173 54.1672 27.8187 54.6365 27.776L55.0205 27.52C55.2338 27.1787 55.5538 26.8587 55.9805 26.56C56.4498 26.2187 56.8552 25.9413 57.1965 25.728L57.5805 25.792L57.5165 25.536L57.7085 25.408L57.5165 24.768C57.0898 24.5973 56.5352 24.384 55.8525 24.128C55.2125 23.872 54.6152 23.552 54.0605 23.168C53.5485 22.7413 53.2925 22.2507 53.2925 21.696C53.2925 21.2693 53.6765 20.672 54.4445 19.904C55.2125 19.136 56.1298 18.368 57.1965 17.6C58.3058 16.7893 59.3512 16.1067 60.3325 15.552C61.3565 14.9973 62.0818 14.72 62.5085 14.72C63.0632 14.5067 63.4685 14.1653 63.7245 13.696C63.9805 13.2267 64.2152 12.8 64.4285 12.416C64.6845 11.9893 65.0258 11.776 65.4525 11.776C66.0072 11.776 66.4765 12.0533 66.8605 12.608C67.2872 13.1627 67.5858 13.6533 67.7565 14.08C67.7138 14.2507 67.5858 14.4 67.3725 14.528C67.2018 14.656 67.0738 14.8267 66.9885 15.04C66.4765 15.4667 66.0498 16 65.7085 16.64C65.4098 17.2373 65.1112 17.8347 64.8125 18.432L63.6605 19.072L63.4685 18.816H63.4045C63.2338 19.0293 63.0632 19.2213 62.8925 19.392C62.7218 19.5627 62.5938 19.7547 62.5085 19.968C62.3378 20.1387 62.1672 20.3947 61.9965 20.736C61.8685 21.0347 61.6765 21.2053 61.4205 21.248L61.3565 21.12C61.5698 20.4373 61.7832 19.7547 61.9965 19.072C62.2098 18.3467 62.4445 17.6427 62.7005 16.96L62.8285 16.896L62.9565 15.936C62.5298 15.936 62.1245 16.0427 61.7405 16.256C61.3565 16.4693 60.9298 16.5547 60.4605 16.512C60.2898 16.64 59.9912 16.896 59.5645 17.28C59.1805 17.664 58.7965 18.0053 58.4125 18.304C58.0285 18.6027 57.7298 18.7733 57.5165 18.816C57.2605 19.2853 56.8765 19.7333 56.3645 20.16C55.8952 20.5867 55.6605 21.0987 55.6605 21.696C55.6605 21.952 55.7885 22.1227 56.0445 22.208C56.3005 22.2507 56.5352 22.272 56.7485 22.272V22.656L56.8765 22.592L57.9005 22.848L58.0925 22.656C58.6472 22.784 59.3298 22.9973 60.1405 23.296C60.9938 23.552 61.7405 23.9147 62.3805 24.384C63.0632 24.8533 63.4045 25.472 63.4045 26.24C63.4045 26.5387 63.3405 26.8373 63.2125 27.136C63.0845 27.4347 62.9138 27.7333 62.7005 28.032L61.6765 29.056L60.0765 28.928C59.7778 29.1413 59.2658 29.3333 58.5405 29.504C57.8152 29.632 57.1325 29.76 56.4925 29.888C55.8952 30.016 55.5965 30.1653 55.5965 30.336L55.0205 29.824C54.8072 30.208 54.4872 30.4 54.0605 30.4C53.6338 30.4 53.2072 30.4 52.7805 30.4C52.3965 30.4 51.9485 30.6347 51.4365 31.104C50.9672 31.5733 50.5405 32.0853 50.1565 32.64C49.7725 33.2373 49.5378 33.728 49.4525 34.112L49.0685 34.944ZM65.9605 33.856C65.2778 33.856 64.7232 33.5573 64.2965 32.96C63.8698 32.4053 63.6565 31.7867 63.6565 31.104C63.6565 30.592 63.8058 29.824 64.1045 28.8C64.4458 27.7333 64.8512 26.624 65.3205 25.472C65.7898 24.2773 66.2805 23.2107 66.7925 22.272C67.3045 21.3333 67.7738 20.7147 68.2005 20.416C68.7978 19.4773 69.3312 18.6027 69.8005 17.792C69.1178 17.92 68.4352 18.0693 67.7525 18.24C67.0698 18.368 66.4298 18.56 65.8325 18.816C65.5338 19.2 65.1925 19.392 64.8085 19.392C64.6805 19.3067 64.5312 19.2213 64.3605 19.136C64.1898 19.0507 64.0405 18.944 63.9125 18.816L63.9765 18.688H63.9125V18.56C63.9125 18.3467 63.8698 18.1547 63.7845 17.984C63.7418 17.7707 63.6992 17.5787 63.6565 17.408C63.6138 17.3653 63.5925 17.2587 63.5925 17.088C63.5925 16.5333 63.8485 16.1707 64.3605 16C64.9152 15.8293 65.4698 15.744 66.0245 15.744C66.8352 15.744 67.3898 15.808 67.6885 15.936L68.3285 15.808H69.9285C70.2272 15.808 70.5045 15.808 70.7605 15.808C71.0165 15.808 71.2725 15.7867 71.5285 15.744L71.7845 15.36L71.7205 15.104C71.8485 14.8053 72.1258 14.3147 72.5525 13.632C72.9792 12.9493 73.4272 12.224 73.8965 11.456C74.3658 10.688 74.7712 10.0267 75.1125 9.472C75.4965 8.87466 75.6885 8.576 75.6885 8.576C75.6885 8.32 75.9018 8.17066 76.3285 8.128C76.7552 8.08533 77.0325 8.064 77.1605 8.064C77.6298 8.064 78.2698 8.21333 79.0805 8.512C79.8912 8.768 80.2965 9.216 80.2965 9.856C80.2965 10.24 80.1472 10.56 79.8485 10.816C79.5498 11.0293 79.2298 11.1787 78.8885 11.264V11.328C78.8885 11.584 78.6965 11.8827 78.3125 12.224C77.9712 12.5653 77.5658 12.864 77.0965 13.12C76.6272 13.376 76.2645 13.5467 76.0085 13.632C75.8805 13.6747 75.7098 13.8453 75.4965 14.144C75.3258 14.4 75.1978 14.592 75.1125 14.72V14.976C74.9418 15.104 74.7498 15.2533 74.5365 15.424C74.3658 15.552 74.2165 15.7227 74.0885 15.936C74.3018 15.9787 74.5152 16 74.7285 16C74.9418 16 75.1552 16 75.3685 16C75.7098 16 76.0298 16 76.3285 16C76.6698 16 76.9898 16.0213 77.2885 16.064L79.2725 16.32C78.7605 16.7467 78.1845 17.0027 77.5445 17.088C76.9045 17.1307 76.2432 17.152 75.5605 17.152C74.9205 17.1093 74.3018 17.216 73.7045 17.472C73.4058 17.5573 73.0005 17.8133 72.4885 18.24C72.0192 18.6667 71.5925 19.136 71.2085 19.648C70.8245 20.1173 70.6325 20.5227 70.6325 20.864L69.1605 22.848C68.7338 23.0613 68.5205 23.3813 68.5205 23.808C68.5205 24.2347 68.2858 24.448 67.8165 24.448L66.9205 26.496C66.8778 26.752 66.8138 27.1573 66.7285 27.712C66.6858 28.224 66.5152 28.5227 66.2165 28.608C66.2165 29.1627 66.1952 29.7173 66.1525 30.272C66.1098 30.784 66.0885 31.296 66.0885 31.808L66.2165 32.064H66.7285C67.5818 31.2107 68.4565 30.4 69.3525 29.632C70.2912 28.8213 71.1658 27.968 71.9765 27.072L72.2965 26.944H72.4245L72.8085 26.432L73.0645 26.304L73.0005 26.24L73.3845 25.92C73.7258 25.28 74.2805 24.7467 75.0485 24.32L75.1125 24.448C75.1125 24.6613 74.8352 25.1307 74.2805 25.856C73.7258 26.5387 73.0218 27.3493 72.1685 28.288C71.3578 29.184 70.5045 30.0587 69.6085 30.912C68.7552 31.7653 67.9872 32.4693 67.3045 33.024C66.6218 33.5787 66.1738 33.856 65.9605 33.856ZM78.4865 33.472C78.0172 33.472 77.5052 33.28 76.9505 32.896C76.3958 32.5547 75.8838 32.128 75.4145 31.616C74.9878 31.104 74.6678 30.656 74.4545 30.272C74.9665 29.76 75.3078 29.2267 75.4785 28.672C75.8198 28.3307 76.1185 27.9467 76.3745 27.52C76.6305 27.0933 76.8438 26.6667 77.0145 26.24H77.2065C77.3772 25.984 77.5052 25.7067 77.5905 25.408C77.7185 25.1093 77.8678 24.832 78.0385 24.576L78.3585 23.36L79.3185 22.848L80.0225 21.76L80.5345 21.056L80.2145 20.672L80.2785 20.416L80.5345 20.352L80.8545 20.608L81.4305 20.032H81.3025L80.9185 20.224L81.3665 19.136V19.008L80.7905 19.392C80.8758 19.136 81.0038 18.9013 81.1745 18.688C81.3452 18.4747 81.5798 18.368 81.8785 18.368L82.2625 17.472L82.1985 17.088L83.5425 15.36L83.4145 14.848C83.5852 14.592 83.7345 14.3573 83.8625 14.144C84.0332 13.888 84.1612 13.6107 84.2465 13.312L85.0785 13.056L85.1425 12.8L84.8225 12.096C84.8225 11.456 85.1638 11.0933 85.8465 11.008L85.4625 10.816L85.3985 10.752L85.9105 10.24L85.9745 10.496L86.4225 10.048L86.1025 9.6C86.3158 9.30133 86.4438 8.98133 86.4865 8.64C86.5292 8.256 86.5505 7.89333 86.5505 7.552C87.3612 6.57066 87.8518 5.61066 88.0225 4.672C88.2358 3.69066 88.3638 2.60266 88.4065 1.408L88.0225 1.088C86.9985 1.13066 86.0172 1.30133 85.0785 1.6C84.1825 1.89867 83.2652 2.28266 82.3265 2.752C81.3452 3.264 80.6625 3.75466 80.2785 4.224C79.8945 4.69333 79.5745 5.16266 79.3185 5.632C79.1052 6.10133 78.6572 6.63467 77.9745 7.232C77.6758 7.53067 77.2278 7.808 76.6305 8.064C76.0758 8.27733 75.8412 8.68267 75.9265 9.28C74.6892 9.70667 73.9212 10.4747 73.6225 11.584C73.3665 12.6933 73.2385 13.8027 73.2385 14.912C73.1958 14.9547 73.1532 15.04 73.1105 15.168C73.0678 15.296 73.0252 15.4027 72.9825 15.488C72.5558 15.104 72.2785 14.4853 72.1505 13.632C72.0225 12.736 71.9585 12.0107 71.9585 11.456C71.9585 10.5173 72.3212 9.536 73.0465 8.512C73.7718 7.44533 74.7105 6.42133 75.8625 5.44C77.0572 4.416 78.3158 3.49866 79.6385 2.688C80.9612 1.87733 82.2412 1.23733 83.4785 0.767998C84.7158 0.255998 85.7398 -1.90735e-06 86.5505 -1.90735e-06C87.3612 -1.90735e-06 88.2572 0.191998 89.2385 0.575998C90.2625 0.917331 91.1372 1.42933 91.8625 2.112C92.6305 2.79466 93.0145 3.584 93.0145 4.48C93.0145 5.16266 92.7798 5.97333 92.3105 6.912C91.8412 7.808 91.4572 8.55467 91.1585 9.152C91.0305 9.23733 90.6465 9.728 90.0065 10.624C89.3665 11.52 88.6198 12.6293 87.7665 13.952C86.9132 15.232 86.0598 16.5333 85.2065 17.856C84.3532 19.136 83.6278 20.2453 83.0305 21.184C82.4758 22.1227 82.1558 22.6773 82.0705 22.848C81.8572 23.1467 81.5585 23.552 81.1745 24.064C80.7905 24.576 80.5985 25.024 80.5985 25.408L80.6625 25.856C81.3025 25.216 82.1772 24.2773 83.2865 23.04C84.4385 21.76 85.6972 20.3307 87.0625 18.752C88.4705 17.1733 89.9212 15.5947 91.4145 14.016C92.9505 12.3947 94.4225 10.9013 95.8305 9.536C97.2812 8.17067 98.6038 7.08267 99.7985 6.272C100.993 5.41866 101.953 4.992 102.679 4.992C102.977 4.992 103.447 5.01333 104.087 5.056C104.727 5.09867 105.303 5.22667 105.815 5.44C106.369 5.61066 106.647 5.93066 106.647 6.4C106.647 6.69866 106.604 6.99733 106.519 7.296C106.433 7.552 106.412 7.85066 106.455 8.192C106.028 9.77066 105.601 11.328 105.175 12.864C104.748 14.4 104.044 15.8507 103.063 17.216C102.849 17.5147 102.743 17.9627 102.743 18.56C102.743 18.816 102.764 18.9867 102.807 19.072C102.593 19.4133 102.529 19.7333 102.615 20.032C102.7 20.288 102.529 20.6507 102.103 21.12C102.103 21.4187 102.188 21.6747 102.359 21.888C102.572 22.0587 102.721 22.272 102.807 22.528C103.361 21.6747 104.065 20.5867 104.919 19.264C105.772 17.8987 106.711 16.4693 107.735 14.976C108.801 13.4827 109.889 12.032 110.999 10.624C112.151 9.216 113.26 8.02133 114.327 7.04C115.393 6.016 116.353 5.33333 117.207 4.992C117.548 4.992 118.081 5.01333 118.807 5.056C119.532 5.09867 120.193 5.20533 120.791 5.376C121.431 5.54666 121.751 5.86666 121.751 6.336C121.751 7.232 121.601 8.40533 121.303 9.856C121.047 11.264 120.705 12.6507 120.279 14.016C119.852 15.3813 119.361 16.4267 118.807 17.152L119.383 18.112C119.127 18.5813 118.935 19.0933 118.807 19.648C118.679 20.16 118.423 20.6507 118.039 21.12C118.039 22.016 117.932 22.912 117.719 23.808C117.505 24.6613 117.399 25.5573 117.399 26.496C117.399 26.6667 117.42 26.8587 117.463 27.072C117.505 27.2853 117.505 27.4987 117.463 27.712L117.847 28.544C118.145 28.4587 118.444 28.352 118.743 28.224C119.041 28.0533 119.255 27.8187 119.383 27.52L119.767 27.456H120.279C120.876 26.9013 121.473 26.368 122.071 25.856C122.711 25.3013 123.308 24.7467 123.863 24.192L124.055 24.384C123.372 25.664 122.433 26.9653 121.239 28.288C120.087 29.6107 119.084 30.9547 118.231 32.32C118.145 32.3627 118.017 32.4053 117.847 32.448C117.719 32.5333 117.612 32.576 117.527 32.576C116.716 32.576 115.948 32.192 115.223 31.424C114.54 30.6987 114.199 29.9307 114.199 29.12C114.199 27.2 114.327 25.2587 114.583 23.296C114.881 21.2907 115.137 19.3707 115.351 17.536L115.223 16.768C115.692 15.1467 116.033 13.504 116.247 11.84C116.46 10.176 116.631 8.49066 116.759 6.784C116.375 6.99733 115.756 7.59466 114.903 8.576C114.049 9.55733 113.068 10.7307 111.959 12.096C110.849 13.4613 109.74 14.8693 108.631 16.32C107.564 17.728 106.604 19.008 105.751 20.16C104.897 21.312 104.3 22.144 103.959 22.656C103.745 22.9973 103.425 23.5093 102.999 24.192C102.615 24.8747 102.252 25.5573 101.911 26.24C101.612 26.9227 101.42 27.4773 101.335 27.904C101.292 28.16 101.249 28.544 101.207 29.056C101.207 29.5253 101.121 29.9733 100.951 30.4C100.823 30.784 100.567 30.976 100.183 30.976C99.7558 30.976 99.3718 30.7627 99.0305 30.336C98.6892 29.8667 98.5185 29.4827 98.5185 29.184C98.5185 28.3733 98.6252 27.264 98.8385 25.856C99.0518 24.4053 99.2652 22.9333 99.4785 21.44C99.6918 19.9467 99.7985 18.752 99.7985 17.856C99.7985 17.6427 99.7772 17.4507 99.7345 17.28C99.7345 17.1093 99.7132 16.96 99.6705 16.832L99.9905 16.384L100.311 14.272L100.695 14.4H100.887L101.207 13.952L101.015 13.44L100.247 13.696C100.332 12.5013 100.545 11.3493 100.887 10.24C101.271 9.13066 101.505 8 101.591 6.848C100.524 7.232 99.5425 7.82933 98.6465 8.64C97.7932 9.45067 96.9612 10.304 96.1505 11.2C95.3398 12.096 94.4652 12.9067 93.5265 13.632L93.3345 14.016C92.9932 14.272 92.3745 14.8693 91.4785 15.808C90.6252 16.704 89.6652 17.7707 88.5985 19.008C87.5318 20.2027 86.4865 21.3973 85.4625 22.592C84.4812 23.7867 83.6705 24.832 83.0305 25.728C82.4332 26.624 82.1772 27.2 82.2625 27.456C81.9212 28.0107 81.5585 28.544 81.1745 29.056C80.7905 29.568 80.4278 30.0587 80.0865 30.528C80.1718 30.6987 80.2145 30.848 80.2145 30.976C80.2145 31.36 80.0012 31.552 79.5745 31.552C79.1905 31.552 78.9558 31.68 78.8705 31.936L79.3185 32.512C79.2758 32.6827 79.1692 32.8747 78.9985 33.088C78.8705 33.344 78.6998 33.472 78.4865 33.472ZM85.7825 11.84C86.2092 11.6693 86.4225 11.392 86.4225 11.008V10.816L85.9745 11.072V11.328L85.7825 11.84ZM84.6945 12.864L84.7585 12.8L85.0145 12.672V12.8L84.6945 12.864ZM82.5185 17.664L82.7745 17.6L83.1585 16.768H82.9665L82.5185 17.664ZM124.567 24L124.183 23.872L124.503 23.36L124.631 23.296L124.759 23.488L124.567 24ZM134.842 35.392L133.562 33.92C133.349 33.0667 133.114 32.192 132.858 31.296C132.645 30.4427 132.495 29.568 132.41 28.672L132.73 27.456L132.602 27.392C132.773 26.9227 132.943 26.4533 133.114 25.984C133.327 25.472 133.434 24.9813 133.434 24.512C133.221 24.7253 132.986 24.9387 132.73 25.152C132.517 25.3653 132.346 25.6213 132.218 25.92C132.047 26.0907 131.898 26.304 131.77 26.56C131.642 26.816 131.471 27.0293 131.258 27.2L131.194 27.776C130.597 27.904 129.999 28.2027 129.402 28.672C128.847 29.0987 128.293 29.5253 127.738 29.952C127.183 30.336 126.586 30.528 125.946 30.528C125.647 30.528 125.263 30.5067 124.794 30.464C124.367 30.3787 124.047 30.2507 123.834 30.08C123.279 29.952 122.874 29.8027 122.618 29.632C122.405 29.4187 122.234 29.0347 122.106 28.48L122.362 27.648L122.17 27.136C122.383 26.4533 122.533 25.9627 122.618 25.664C122.746 25.3653 122.917 25.1093 123.13 24.896C123.386 24.6827 123.791 24.3627 124.346 23.936C124.389 23.7227 124.495 23.5733 124.666 23.488C124.879 23.36 125.071 23.2747 125.242 23.232L125.306 22.912L125.946 22.144L126.138 22.272L126.522 21.696C126.821 21.4827 127.119 21.3547 127.418 21.312C127.759 21.2267 128.079 21.0987 128.378 20.928C128.463 20.4587 128.741 20.1813 129.21 20.096C129.722 19.968 130.021 19.7333 130.106 19.392H130.362L131.45 18.688L131.834 18.88L132.73 18.304C132.986 18.304 133.221 18.2827 133.434 18.24C133.69 18.1973 133.925 18.176 134.138 18.176L134.394 18.304C133.541 18.6027 132.559 19.0933 131.45 19.776C130.341 20.416 129.253 21.184 128.186 22.08C127.162 22.9333 126.309 23.872 125.626 24.896C124.943 25.92 124.602 26.944 124.602 27.968C124.602 28.7787 125.029 29.184 125.882 29.184C126.65 29.184 127.439 28.9493 128.25 28.48C129.103 28.0107 129.871 27.4347 130.554 26.752C131.237 26.0693 131.727 25.408 132.026 24.768L133.114 23.872C133.199 23.6587 133.306 23.5093 133.434 23.424C133.562 23.3387 133.647 23.1893 133.69 22.976C133.989 22.9333 134.202 22.6773 134.33 22.208C134.458 21.7387 134.607 21.2267 134.778 20.672C134.949 20.0747 135.183 19.5627 135.482 19.136C135.781 18.7093 136.229 18.496 136.826 18.496C137.295 18.496 137.829 18.7093 138.426 19.136C139.023 19.52 139.322 19.9893 139.322 20.544C139.322 20.8427 139.066 21.4187 138.554 22.272C138.042 23.1253 137.445 24.128 136.762 25.28C136.122 26.432 135.546 27.6267 135.034 28.864C134.522 30.1013 134.266 31.2747 134.266 32.384C134.266 32.8533 134.351 33.3227 134.522 33.792C134.735 34.2613 134.863 34.7307 134.906 35.2L134.842 35.392ZM149.455 30.528C148.815 30.528 148.324 30.272 147.983 29.76L146.511 29.056C146.34 28.672 146.255 28.2027 146.255 27.648C146.255 26.752 146.468 25.792 146.895 24.768C147.364 23.7013 147.812 22.8053 148.239 22.08C147.94 21.9093 147.684 21.696 147.471 21.44C147.257 21.184 147.044 20.928 146.831 20.672L146.639 20.544C146.468 20.7147 146.276 20.864 146.063 20.992C145.849 21.12 145.636 21.2053 145.423 21.248C145.039 21.632 144.484 22.272 143.759 23.168C143.033 24.0213 142.244 24.9173 141.391 25.856C140.537 26.752 139.705 27.5413 138.895 28.224C138.127 28.9067 137.508 29.248 137.039 29.248L136.975 29.12C137.017 28.864 137.209 28.5867 137.551 28.288C137.935 27.9467 138.212 27.6907 138.383 27.52C138.468 27.1787 138.681 26.88 139.023 26.624C139.364 26.368 139.684 26.176 139.983 26.048H140.047L140.431 25.472L140.751 25.28L140.687 25.216L141.135 24.896C141.22 24.6827 141.348 24.4907 141.519 24.32C141.689 24.1493 141.839 23.9787 141.967 23.808V23.68C142.905 22.9547 143.759 22.1653 144.527 21.312C145.337 20.416 146.169 19.5413 147.023 18.688L147.087 18.624L147.023 18.24C147.023 17.7707 147.129 17.2587 147.343 16.704C147.599 16.1067 147.876 15.6587 148.175 15.36C148.473 14.9333 148.836 14.4853 149.263 14.016C149.732 13.504 150.244 13.248 150.799 13.248C151.225 13.248 151.481 13.4613 151.567 13.888C151.652 14.272 151.695 14.6133 151.695 14.912C151.695 15.9787 151.417 16.8107 150.863 17.408C150.308 17.9627 149.732 18.3893 149.135 18.688C148.58 18.9867 148.303 19.3067 148.303 19.648L149.327 20.096L149.711 19.776L149.775 19.84H149.903C150.159 19.712 150.415 19.6053 150.671 19.52C150.927 19.392 151.204 19.328 151.503 19.328C151.759 19.328 152.015 19.4133 152.271 19.584C152.527 19.712 152.74 19.84 152.911 19.968L152.975 20.544C153.017 20.928 152.847 21.3547 152.463 21.824C152.121 22.2507 151.695 22.7627 151.183 23.36C150.671 23.9147 150.223 24.5973 149.839 25.408C149.455 26.176 149.263 27.072 149.263 28.096C149.263 28.352 149.305 28.6293 149.391 28.928C149.519 29.184 149.753 29.312 150.095 29.312C150.607 29.312 151.183 29.12 151.823 28.736C152.463 28.352 153.103 27.9253 153.743 27.456C154.383 26.944 154.916 26.56 155.343 26.304L155.599 26.624C155.599 26.9227 155.343 27.2853 154.831 27.712C154.319 28.1387 153.7 28.5653 152.975 28.992C152.249 29.4187 151.545 29.7813 150.863 30.08C150.223 30.3787 149.753 30.528 149.455 30.528ZM153.768 32.448C153.256 32.064 153 31.552 153 30.912C153 30.4427 153.043 29.9947 153.128 29.568C153.256 29.0987 153.341 28.6293 153.384 28.16H153.448C154.813 24.3627 156.563 20.9067 158.696 17.792C160.829 14.6347 163.261 11.6053 165.992 8.704C165.949 8.40533 166.163 7.95733 166.632 7.36C167.144 6.76267 167.699 6.16533 168.296 5.568C168.936 4.97066 169.384 4.58666 169.64 4.416C169.896 4.416 170.28 4.52267 170.792 4.736C171.304 4.94933 171.773 5.20533 172.2 5.504C172.627 5.76 172.84 6.03733 172.84 6.336C172.84 6.63467 172.605 7.168 172.136 7.936C171.667 8.66133 171.133 9.36533 170.536 10.048C169.981 10.688 169.512 11.0293 169.128 11.072V10.368L168.744 10.56V10.496L168.36 10.176C168.147 10.4747 167.869 10.752 167.528 11.008C167.229 11.2213 166.845 11.328 166.376 11.328V11.456L166.12 11.904H165.992V12.224H165.672C165.075 12.224 164.584 12.4373 164.2 12.864V13.44L164.392 13.504V13.44L164.712 13.184L164.776 13.248C164.349 14.3147 163.731 15.3387 162.92 16.32C162.152 17.3013 161.363 18.2827 160.552 19.264C159.784 20.2453 159.165 21.312 158.696 22.464C158.397 22.6773 158.013 23.0827 157.544 23.68C157.117 24.2347 156.733 24.832 156.392 25.472C156.051 26.0693 155.88 26.5387 155.88 26.88C155.88 27.0507 155.88 27.2 155.88 27.328C155.88 27.456 155.901 27.6053 155.944 27.776V27.712C157.053 26.816 157.821 25.9627 158.248 25.152C158.675 24.2987 158.973 23.5733 159.144 22.976C159.357 22.336 159.656 21.8667 160.04 21.568C160.424 21.2267 161.149 21.12 162.216 21.248V21.184C162.643 20.8 163.155 20.3307 163.752 19.776C164.349 19.2213 164.968 18.7307 165.608 18.304C166.291 17.8773 166.909 17.664 167.464 17.664C167.549 17.664 167.656 17.7067 167.784 17.792C167.955 17.8347 168.061 17.8773 168.104 17.92L168.552 18.56C168.552 18.944 168.403 19.328 168.104 19.712C167.805 20.0533 167.549 20.352 167.336 20.608H167.208V20.864L163.624 23.872C163.539 24.0427 163.496 24.2133 163.496 24.384C163.496 24.768 163.603 25.2587 163.816 25.856C164.029 26.4107 164.328 26.9227 164.712 27.392C165.139 27.8187 165.587 28.032 166.056 28.032H166.824L167.464 27.52V27.456L167.656 27.52L168.488 27.072L168.552 27.136C168.424 27.5627 168.083 28.0747 167.528 28.672C166.973 29.2693 166.355 29.8027 165.672 30.272C165.032 30.6987 164.477 30.912 164.008 30.912C163.155 30.912 162.493 30.6347 162.024 30.08C161.555 29.5253 161.192 28.8853 160.936 28.16C160.723 27.392 160.531 26.7307 160.36 26.176C160.189 25.6213 159.976 25.344 159.72 25.344C159.379 25.344 159.037 25.5787 158.696 26.048C158.355 26.5173 158.12 26.88 157.992 27.136C157.779 27.3067 157.565 27.4987 157.352 27.712C157.139 27.9253 156.925 28.1387 156.712 28.352H156.584L156.008 28.928L156.136 29.056L155.624 29.696L155.816 30.016H155.624L155.24 30.656V30.912H155.176L154.856 30.656V30.848H154.792L155.048 31.104L154.6 31.424L153.896 32.064L153.832 32.448H153.768ZM163.304 23.424H163.432C163.731 23.2107 164.115 22.912 164.584 22.528C165.053 22.1013 165.48 21.6533 165.864 21.184C166.291 20.7147 166.504 20.3093 166.504 19.968L166.312 19.52L166.248 19.648C166.035 19.7333 165.672 19.9253 165.16 20.224C164.691 20.48 164.435 20.7573 164.392 21.056L164.008 20.864L163.88 21.184L163.816 21.12C163.432 21.376 163.24 21.76 163.24 22.272C163.24 22.4853 163.24 22.6773 163.24 22.848C163.283 23.0187 163.304 23.2107 163.304 23.424ZM170.965 31.616C170.581 31.616 170.112 31.36 169.557 30.848C169.045 30.336 168.618 29.952 168.277 29.696C168.192 29.1413 168.042 28.6507 167.829 28.224C167.616 27.7547 167.509 27.264 167.509 26.752C167.509 25.984 167.786 25.088 168.341 24.064C168.938 22.9973 169.685 21.952 170.581 20.928C171.52 19.904 172.458 19.0507 173.397 18.368C174.378 17.6853 175.253 17.344 176.021 17.344V17.216C176.618 17.344 177.173 17.728 177.685 18.368C178.24 19.008 178.517 19.6053 178.517 20.16C178.517 20.672 178.197 21.2053 177.557 21.76C176.96 22.272 176.213 22.7627 175.317 23.232C174.464 23.6587 173.61 24 172.757 24.256C171.946 24.512 171.306 24.64 170.837 24.64V24.768C170.538 25.2373 170.24 25.8347 169.941 26.56C169.685 27.2427 169.557 27.8827 169.557 28.48C169.557 28.6933 169.621 28.928 169.749 29.184C170.048 29.3973 170.432 29.504 170.901 29.504C171.37 29.4613 171.754 29.4613 172.053 29.504L172.117 29.568L172.309 29.248C172.864 29.2053 173.397 29.0773 173.909 28.864V28.48H174.293V28.288L174.549 28.352C174.762 28.2667 174.912 28.1813 174.997 28.096C175.125 27.968 175.274 27.8613 175.445 27.776L175.829 27.968V27.904L176.981 26.816H177.045L177.237 26.944V26.88C177.792 26.368 178.389 25.8987 179.029 25.472C179.669 25.0453 180.138 24.4907 180.437 23.808L181.141 23.296L181.269 23.424C181.269 23.7227 181.162 24 180.949 24.256C180.736 24.512 180.48 24.6827 180.181 24.768C179.84 25.5787 179.328 26.2613 178.645 26.816C178.005 27.3707 177.344 27.9467 176.661 28.544H176.469L176.405 28.864C175.594 29.4187 174.741 30.016 173.845 30.656C172.992 31.296 172.032 31.616 170.965 31.616ZM172.181 23.424H172.309V23.296C172.608 23.2107 173.12 22.9547 173.845 22.528C174.613 22.1013 175.338 21.6533 176.021 21.184C176.704 20.672 177.066 20.3093 177.109 20.096H177.173L177.109 19.776L177.173 19.456C177.13 19.456 177.045 19.456 176.917 19.456C176.789 19.4133 176.682 19.392 176.597 19.392C176.042 19.776 175.488 20.1387 174.933 20.48C174.378 20.8213 173.824 21.1627 173.269 21.504H173.141L173.077 22.016C172.821 22.1867 172.629 22.4 172.501 22.656C172.373 22.8693 172.266 23.1253 172.181 23.424ZM181.909 23.232L181.525 23.104L181.461 22.72L182.101 22.528L182.165 22.72L181.909 23.232ZM180.353 33.856C179.67 33.856 179.116 33.5573 178.689 32.96C178.262 32.4053 178.049 31.7867 178.049 31.104C178.049 30.592 178.198 29.824 178.497 28.8C178.838 27.7333 179.244 26.624 179.713 25.472C180.182 24.2773 180.673 23.2107 181.185 22.272C181.697 21.3333 182.166 20.7147 182.593 20.416C183.19 19.4773 183.724 18.6027 184.193 17.792C183.51 17.92 182.828 18.0693 182.145 18.24C181.462 18.368 180.822 18.56 180.225 18.816C179.926 19.2 179.585 19.392 179.201 19.392C179.073 19.3067 178.924 19.2213 178.753 19.136C178.582 19.0507 178.433 18.944 178.305 18.816L178.369 18.688H178.305V18.56C178.305 18.3467 178.262 18.1547 178.177 17.984C178.134 17.7707 178.092 17.5787 178.049 17.408C178.006 17.3653 177.985 17.2587 177.985 17.088C177.985 16.5333 178.241 16.1707 178.753 16C179.308 15.8293 179.862 15.744 180.417 15.744C181.228 15.744 181.782 15.808 182.081 15.936L182.721 15.808H184.321C184.62 15.808 184.897 15.808 185.153 15.808C185.409 15.808 185.665 15.7867 185.921 15.744L186.177 15.36L186.113 15.104C186.241 14.8053 186.518 14.3147 186.945 13.632C187.372 12.9493 187.82 12.224 188.289 11.456C188.758 10.688 189.164 10.0267 189.505 9.472C189.889 8.87466 190.081 8.576 190.081 8.576C190.081 8.32 190.294 8.17066 190.721 8.128C191.148 8.08533 191.425 8.064 191.553 8.064C192.022 8.064 192.662 8.21333 193.473 8.512C194.284 8.768 194.689 9.216 194.689 9.856C194.689 10.24 194.54 10.56 194.241 10.816C193.942 11.0293 193.622 11.1787 193.281 11.264V11.328C193.281 11.584 193.089 11.8827 192.705 12.224C192.364 12.5653 191.958 12.864 191.489 13.12C191.02 13.376 190.657 13.5467 190.401 13.632C190.273 13.6747 190.102 13.8453 189.889 14.144C189.718 14.4 189.59 14.592 189.505 14.72V14.976C189.334 15.104 189.142 15.2533 188.929 15.424C188.758 15.552 188.609 15.7227 188.481 15.936C188.694 15.9787 188.908 16 189.121 16C189.334 16 189.548 16 189.761 16C190.102 16 190.422 16 190.721 16C191.062 16 191.382 16.0213 191.681 16.064L193.665 16.32C193.153 16.7467 192.577 17.0027 191.937 17.088C191.297 17.1307 190.636 17.152 189.953 17.152C189.313 17.1093 188.694 17.216 188.097 17.472C187.798 17.5573 187.393 17.8133 186.881 18.24C186.412 18.6667 185.985 19.136 185.601 19.648C185.217 20.1173 185.025 20.5227 185.025 20.864L183.553 22.848C183.126 23.0613 182.913 23.3813 182.913 23.808C182.913 24.2347 182.678 24.448 182.209 24.448L181.313 26.496C181.27 26.752 181.206 27.1573 181.121 27.712C181.078 28.224 180.908 28.5227 180.609 28.608C180.609 29.1627 180.588 29.7173 180.545 30.272C180.502 30.784 180.481 31.296 180.481 31.808L180.609 32.064H181.121C181.974 31.2107 182.849 30.4 183.745 29.632C184.684 28.8213 185.558 27.968 186.369 27.072L186.689 26.944H186.817L187.201 26.432L187.457 26.304L187.393 26.24L187.777 25.92C188.118 25.28 188.673 24.7467 189.441 24.32L189.505 24.448C189.505 24.6613 189.228 25.1307 188.673 25.856C188.118 26.5387 187.414 27.3493 186.561 28.288C185.75 29.184 184.897 30.0587 184.001 30.912C183.148 31.7653 182.38 32.4693 181.697 33.024C181.014 33.5787 180.566 33.856 180.353 33.856Z" fill="black"/>
</svg>
